<svg version="1.2" xmlns="http://www.w3.org/2000/svg" viewBox="0 0 512 512" width="512" height="512"><path id="Color Fill 1" fill="#000" d="m310.76 47.21c-2.06 1.26-4.63 3.87-5.72 5.79-1.84 3.27-1.98 5.5-2.01 33.75l-0.03 30.25c-58.47 0.06-60.73 0.2-64 2.04-1.93 1.08-4.58 3.88-5.9 6.22-1.92 3.4-2.28 5.13-1.81 8.74 0.32 2.47 1.45 5.62 2.5 7 1.06 1.37 3.45 3.4 5.31 4.5 3.17 1.86 5.45 2.02 33.65 2.25l30.25 0.25c0 56.08 0.2 59.9 1.75 62.98 0.96 1.91 3.32 4.51 5.25 5.78 2.52 1.66 4.89 2.28 8.5 2.24 3.11-0.04 6.14-0.78 8-1.96 1.65-1.05 3.9-3.4 5-5.22 1.87-3.1 2.02-5.34 2.25-33.57l0.25-30.25c58.48-0.48 60.72-0.63 63.82-2.5 1.82-1.1 4.26-3.57 5.4-5.5 1.15-1.93 2.1-5.29 2.12-7.5 0.02-2.2-0.83-5.53-1.9-7.4-1.07-1.86-3.21-4.34-4.76-5.5-2.71-2.01-4.08-2.11-33.75-2.35l-30.93-0.25c-0.48-58.45-0.64-60.73-2.5-63.9-1.1-1.86-3.12-4.26-4.5-5.32-1.4-1.08-4.7-2.14-7.5-2.39-3.99-0.37-5.76 0-8.74 1.82zm-194.73 125.51c-1.35 0.24-4.09 2.09-6.07 4.11-2.38 2.42-3.86 5.04-4.33 7.67-0.62 3.51 0.47 7.18 8.91 30 5.29 14.3 12.47 33.65 15.96 43 3.48 9.35 12.04 32.3 19.02 51 6.97 18.7 18 48.4 24.5 66 6.5 17.6 16.37 44.15 21.92 59 5.56 14.85 10.88 27.85 11.83 28.89 0.95 1.04 3.19 2.5 4.98 3.25 1.79 0.75 4.6 1.36 6.25 1.36 1.65 0 4.24-0.63 5.75-1.4 1.51-0.78 3.73-2.47 4.93-3.75 1.5-1.63 7.31-18.88 18.79-55.85 9.14-29.43 17.27-55.3 18.07-57.5 0.79-2.2 1.45-4.79 1.45-5.75 0.01-0.96 1.02-2.84 2.26-4.17 1.24-1.33 4.5-3.08 7.25-3.88 2.75-0.81 11.52-3.5 19.5-5.98 7.98-2.48 32.73-10.22 55-17.2 27.2-8.52 41.27-13.39 42.85-14.85 1.28-1.19 2.97-3.41 3.75-4.92 0.77-1.51 1.4-4.1 1.4-5.75 0-1.65-0.61-4.46-1.36-6.25-0.75-1.79-2.21-4.02-3.25-4.96-1.04-0.95-9.54-4.6-18.89-8.11-9.35-3.52-29.82-11.16-45.5-16.98-15.68-5.82-41.77-15.52-58-21.55-16.23-6.03-37.6-13.97-47.5-17.64-9.9-3.67-25.88-9.62-35.5-13.21-9.63-3.6-28.97-10.77-43-15.94-14.03-5.16-26.18-9.32-27-9.24-0.83 0.08-2.61 0.35-3.97 0.6z"/>
</svg>