<svg version="1.2" xmlns="http://www.w3.org/2000/svg" viewBox="0 0 512 512" width="512" height="512"><path id="Color Fill 1" fill="#fff" d="m200.5 95.48c-2.2 0.83-5.69 2.64-7.75 4.02-2.06 1.37-5.12 4.41-6.8 6.75-1.68 2.34-3.71 6.5-4.51 9.25-0.8 2.75-1.46 7.14-1.45 9.75l0.01 4.75c-21.91 18.99-29.23 25.16-30.39 25.97-1.46 1.01-4.88 1.48-11.11 1.5-7.34 0.04-9.78 0.46-13.25 2.29-2.34 1.23-5.87 3.7-7.84 5.49-1.97 1.79-4.79 5.72-6.25 8.75-2.15 4.46-2.66 6.92-2.66 13 0 6.08 0.51 8.54 2.66 13 1.46 3.03 4.28 6.96 6.25 8.75 1.97 1.79 5.5 4.26 7.84 5.49 3.43 1.81 5.88 2.24 12.75 2.24 6.87 0 9.32-0.43 12.75-2.24 2.34-1.23 5.87-3.7 7.84-5.49 1.97-1.79 4.78-5.72 6.23-8.75 1.97-4.11 2.69-7.27 2.82-12.5l0.19-7 30.67-27.49c9.3 0.95 14.03 0.95 16.5 0.61 2.47-0.34 7.2-2.21 10.5-4.16l6-3.54c23.25 7.98 46.43 15.88 66.5 22.71 20.07 6.82 36.76 12.74 37.08 13.14 0.33 0.4 1.42 2.98 2.44 5.73 1.1 2.97 3.71 6.85 6.42 9.55 2.51 2.5 6.58 5.38 9.06 6.41l4.5 1.87c4.44 18.73 6.14 25.52 6.64 27.17 0.49 1.65 3.16 12.45 5.93 24 2.76 11.55 6.36 26.29 7.98 32.75l2.95 11.75c-5.57 7.36-7.71 11.42-8.35 13.77l-1.15 4.28c-22.48 7.09-37.55 11.84-48 15.14-10.45 3.29-23.05 7.27-28 8.84-4.95 1.57-13.95 4.41-20 6.31-6.05 1.9-14.38 4.47-18.5 5.72l-7.5 2.26c-11.69-6.65-12.5-6.82-21.72-6.82h-9.73c-15.84-13.95-23.22-20.48-26.6-23.5-3.39-3.02-9.79-8.65-14.22-12.5-4.44-3.85-7.54-7.21-6.9-7.47 0.64-0.25 7.7-2.52 15.67-5.04 12.23-3.87 14.74-5 16-7.24 1.37-2.43 1.33-2.88-0.5-5.31-1.6-2.14-7.77-4.81-31-13.42-15.95-5.92-41.38-15.37-56.5-21-21.91-8.16-28-10.06-29.97-9.38-1.36 0.47-2.87 1.98-3.35 3.36-0.72 2.04 2.38 11.27 16.77 50 9.71 26.12 19.16 51.55 21 56.5 2.25 6.06 4.21 9.65 5.99 11 2.43 1.83 2.88 1.87 5.32 0.5 2.31-1.3 3.46-4.04 8.7-20.76 3.32-10.6 6.49-19.25 7.04-19.23 0.55 0.02 4.85 3.52 9.56 7.77 4.71 4.24 13.69 12.22 19.95 17.72 6.27 5.5 14.12 12.47 17.44 15.48l6.05 5.48c0.93 11.52 2.06 16.01 3.73 19.54 1.42 3.02 4.21 6.96 6.18 8.75 1.97 1.79 5.5 4.26 7.84 5.49 3.43 1.8 5.9 2.24 12.75 2.25 7.59 0.01 9.08-0.31 13.89-2.99 2.97-1.65 6.93-4.8 8.81-7 1.87-2.2 4.17-6.19 5.1-8.87 0.94-2.67 2.15-5.01 2.7-5.18 0.55-0.17 6.4-1.95 13-3.96 6.6-2 14.48-4.47 17.5-5.47 3.02-1.01 12.25-3.94 20.5-6.51 8.25-2.57 19.73-6.16 25.5-7.98 5.77-1.83 17.25-5.41 25.5-7.97 8.25-2.56 16.01-5.09 17.25-5.61 1.79-0.76 3.42-0.29 8 2.3 5.25 2.97 6.5 3.25 14.25 3.24 6.85-0.01 9.32-0.45 12.75-2.25 2.34-1.23 5.87-3.7 7.84-5.49 1.97-1.79 4.69-5.5 6.02-8.25 1.34-2.75 2.71-7.48 3.04-10.5q0.61-5.5-0.97-11c-0.86-3.02-2.94-7.41-4.62-9.75-1.68-2.34-5.04-5.49-7.46-7-2.41-1.51-5.12-3.2-6.02-3.75-0.89-0.55-2.27-3.7-3.07-7-0.8-3.3-5.08-20.85-9.51-39-4.44-18.15-9.12-37.28-10.41-42.5l-2.36-9.5c4.56-6.2 6.59-10.47 7.45-13.5q1.58-5.5 0.97-11c-0.33-3.03-1.7-7.75-3.04-10.5-1.33-2.75-4.05-6.46-6.02-8.25-1.97-1.79-5.5-4.26-7.84-5.49-3.43-1.8-5.9-2.24-12.75-2.25-7.75-0.01-9 0.27-14.25 3.24l-5.75 3.25c-27.51-9.26-50.13-16.95-68-23.07-17.88-6.13-33.55-11.43-34.84-11.78-1.63-0.45-3.21-2.5-5.15-6.65-1.54-3.3-4.43-7.46-6.41-9.25-1.98-1.79-5.51-4.22-7.85-5.41-2.79-1.42-6.65-2.28-11.25-2.51-4.62-0.24-8.36 0.15-11 1.15z"/>
</svg>