<svg version="1.2" xmlns="http://www.w3.org/2000/svg" viewBox="0 0 512 512" width="512" height="512"><path id="Color Fill 1" fill="#000" d="m255 43.08c101.29-0.09 119.66 0.11 126.5 1.39 4.4 0.82 11.15 2.56 15 3.87 3.85 1.31 9.93 3.84 13.5 5.63 3.57 1.8 9.43 5.19 13 7.55 3.57 2.36 9.43 7.14 13.01 10.63 3.58 3.49 8.74 9.27 11.47 12.85 2.73 3.58 6.87 10.1 9.2 14.5 2.34 4.4 5.39 11.38 6.8 15.5 1.4 4.13 3.23 11.1 4.05 15.5 1.27 6.81 1.5 25.42 1.5 125.5 0 100.08-0.23 118.69-1.5 125.5-0.82 4.4-2.65 11.38-4.05 15.5-1.41 4.13-4.46 11.1-6.8 15.5-2.33 4.4-6.48 10.92-9.21 14.5-2.73 3.57-7.9 9.33-11.47 12.79-3.57 3.46-9.43 8.25-13 10.63-3.57 2.38-9.43 5.8-13 7.6-3.57 1.8-9.65 4.33-13.5 5.64-3.85 1.31-10.6 3.05-15 3.87-6.81 1.27-25.42 1.5-125.5 1.5-100.08 0-118.69-0.23-125.5-1.5-4.4-0.82-11.37-2.65-15.5-4.05-4.12-1.41-11.1-4.46-15.5-6.8-4.4-2.33-10.91-6.48-14.47-9.21-3.56-2.73-8.51-7.01-11-9.5-2.49-2.49-6.77-7.44-9.5-11-2.73-3.56-6.88-10.07-9.21-14.47-2.34-4.4-5.39-11.37-6.8-15.5-1.4-4.12-3.23-11.1-4.05-15.5-1.27-6.81-1.5-25.42-1.5-125.5 0-100.08 0.23-118.69 1.5-125.5 0.82-4.4 2.57-11.15 3.87-15 1.31-3.85 4.08-10.37 6.15-14.5 2.08-4.12 5.7-10.2 8.05-13.5 2.35-3.3 7.02-8.81 10.37-12.25 3.35-3.44 9.35-8.68 13.34-11.64 3.99-2.97 10.85-7.18 15.25-9.36 4.4-2.18 10.93-4.93 14.5-6.12 3.58-1.18 9.65-2.78 13.5-3.54 5.74-1.15 28.34-1.42 125.5-1.51zm-112 42.54c-1.37 0.21-4.97 0.87-8 1.47-3.03 0.59-9.32 2.9-14 5.13-6.82 3.26-10.1 5.66-16.59 12.17-6 6.01-9.05 10.05-11.78 15.61-2.03 4.13-4.44 9.97-5.35 13-1.49 4.9-1.71 14.08-1.98 84.25-0.16 43.31 0.04 78.75 0.45 78.75 0.41 0 11.78-8.82 25.25-19.59 13.47-10.77 26.97-21.08 30-22.91 3.03-1.83 8.43-4.36 12-5.62 5.42-1.92 8.58-2.31 19-2.34 7.84-0.02 14.36 0.49 17.5 1.37 2.75 0.77 7.7 2.75 11 4.39 3.3 1.64 9.38 5.24 13.5 8.01 4.13 2.77 8.96 5.64 10.75 6.36 1.79 0.73 5.28 1.33 7.75 1.33 2.47 0 5.96-0.61 7.75-1.36 1.79-0.75 16.3-11.79 32.25-24.54 15.95-12.75 31.7-24.71 35-26.58 3.3-1.87 9.6-4.38 14-5.58 6.76-1.84 9.79-2.11 19.5-1.7 8.8 0.36 13.02 1.04 18 2.88 3.57 1.32 9.2 3.97 12.5 5.89 4.1 2.38 13.86 11.25 30.81 27.99l24.81 24.5c-0.7-122.01-0.95-130.68-2.41-135.5-0.91-3.03-3.33-8.87-5.37-13-2.72-5.49-5.88-9.67-11.78-15.6-6.03-6.07-9.95-9.03-15.56-11.78-4.12-2.02-9.98-4.43-13-5.36-5.01-1.53-15.72-1.7-119.5-1.85-62.7-0.09-115.13 0-116.5 0.21zm6.5 42.47c2.57-0.07 5.94 0.87 9.44 2.65 3.22 1.63 6.39 4.19 7.76 6.26 1.28 1.93 2.8 5.53 3.37 8 0.75 3.28 0.7 5.86-0.19 9.5-0.91 3.7-2.42 6.19-5.8 9.58-3.39 3.38-5.88 4.89-9.58 5.8-3.64 0.89-6.22 0.94-9.5 0.19-2.47-0.57-6.07-2.09-8-3.37-2.07-1.37-4.63-4.54-6.26-7.76-1.52-2.99-2.75-7.01-2.74-8.94 0.02-1.93 0.58-5.3 1.25-7.5 0.66-2.2 3.02-5.81 5.23-8.03 2.21-2.22 5.59-4.53 7.52-5.15 1.93-0.61 5.3-1.17 7.5-1.23zm182 122.06c-1.65 0.53-16.5 11.72-33 24.89-16.5 13.17-32.93 25.47-36.5 27.35-3.57 1.88-8.97 4.15-12 5.04-3.03 0.89-9.32 1.88-14 2.19-5.97 0.41-10.74 0.1-16-1.03-4.12-0.89-10.43-2.99-14-4.68-3.57-1.69-10.21-5.51-14.75-8.49-4.54-2.98-9.37-5.87-10.75-6.42-1.37-0.55-4.86-0.99-7.75-0.99-3.23 0.01-6.79 0.79-9.25 2.02-2.2 1.11-20.65 15.39-41 31.74l-37 29.73c0.15 15.5 0.76 22.48 1.45 25.5 0.69 3.02 3.07 9.32 5.28 14 3.26 6.87 5.58 10.05 12.15 16.58 6.46 6.42 9.86 8.91 16.62 12.15 4.68 2.23 10.97 4.67 14 5.42 4.46 1.09 27.32 1.35 121 1.35 93.68 0 116.54-0.26 121-1.35 3.02-0.75 9.32-3.18 14-5.41 6.81-3.26 10.1-5.67 16.57-12.15 5.95-5.96 9.05-10.07 11.78-15.59 2.04-4.12 4.41-9.98 5.28-13 1.13-3.95 1.71-11.7 2.05-27.5l0.48-22c-72.58-72.27-79.28-78.5-82.66-79.41-2.2-0.59-5.35-1.04-7-0.98-1.65 0.05-4.35 0.52-6 1.04z"/>
</svg>
