<svg version="1.2" xmlns="http://www.w3.org/2000/svg" viewBox="0 0 512 512" width="512" height="512"> <path id="Color Fill 1" fill="#000" d="m129.75 21.53c2.34 0.26 5.71 1.2 7.5 2.09 1.79 0.89 4.31 2.57 5.6 3.75 1.28 1.17 3.08 3.48 4 5.13 1.51 2.75 1.69 16.82 2.65 330l163.5 0.5c149.68 0.46 163.75 0.64 166.5 2.15 1.65 0.92 3.96 2.72 5.13 4 1.18 1.29 2.95 3.92 3.95 5.85 1.13 2.16 1.82 5.61 1.8 9-0.01 3.92-0.71 6.78-2.45 9.96-1.33 2.45-4.38 5.82-11.1 10.54h-356.5l-3.92-2.73c-2.15-1.51-5.04-4.4-8.91-10.12l-0.29-176.08c-0.21-120.17 0.03-177.26 0.75-179.82 0.57-2.06 2.28-5.16 3.79-6.88 1.51-1.73 4.01-3.82 5.56-4.66 1.54-0.83 4.01-1.88 5.5-2.33 1.48-0.44 4.6-0.6 6.94-0.35zm-75.16 85.73c16.82 0.24 17.15 0.28 21 2.97 2.15 1.51 5.03 4.4 6.41 6.43 2.13 3.14 2.5 4.84 2.5 11.34 0 6.5-0.37 8.2-2.5 11.34-1.38 2.03-4.26 4.92-6.41 6.43-3.81 2.66-4.34 2.74-20 3.06-9.56 0.19-17.61-0.11-19.84-0.75-2.06-0.6-5.16-2.32-6.89-3.83-1.72-1.51-4.06-4.55-5.19-6.75-1.35-2.61-2.06-5.91-2.06-9.5 0-3.65 0.71-6.85 2.1-9.5 1.15-2.2 3.15-4.99 4.44-6.19 1.29-1.21 3.92-2.89 5.85-3.75 2.8-1.24 6.91-1.5 20.59-1.3zm131.87-0.29l205.19 0.53 3.69 2.5c2.03 1.37 4.92 4.26 9.16 10.33v207.32l-2.5 3.69c-1.38 2.03-4.26 4.92-6.41 6.43-3.44 2.4-4.85 2.73-11.59 2.73-6.74 0-8.15-0.33-11.59-2.73-2.15-1.51-5.04-4.4-8.91-10.12l-1-178.15-178.15-1-3.69-2.5c-2.03-1.37-4.92-4.26-6.43-6.41-2.4-3.45-2.73-4.85-2.73-11.67 0-7.01 0.29-8.15 3.01-12 1.65-2.33 5.02-5.3 7.48-6.6zm198.61 320.21c4.99 0.24 7.46 0.92 10.27 2.82 2.03 1.38 4.92 4.26 9.16 10.33v36.5l-3.04 4.34c-1.68 2.38-5.05 5.43-7.5 6.77-3.23 1.76-5.98 2.43-9.96 2.41-3.49-0.02-6.96-0.77-9.5-2.05-2.2-1.12-5.24-3.44-6.75-5.16-1.51-1.73-3.23-4.83-3.83-6.89-0.64-2.23-0.94-10.3-0.75-19.92 0.33-16.14 0.34-16.17 3.34-20.41 1.65-2.33 5.03-5.33 7.5-6.66 3.72-2 5.62-2.36 11.06-2.08z"/>
</svg>