<svg version="1.2" xmlns="http://www.w3.org/2000/svg" viewBox="0 0 512 512" width="512" height="512">
<path id="Color Fill 2" fill="#fff" d="m238.76 119.26c-2.06 1.23-4.71 4.04-5.9 6.24-1.67 3.1-2.02 5.01-1.57 8.5 0.32 2.47 1.45 5.62 2.5 7 1.06 1.37 3.45 3.4 5.31 4.5 3.32 1.95 5.12 2 79.4 1.91 72.92-0.08 76.13-0.16 79.32-2 1.82-1.05 4.26-3.48 5.4-5.41 1.15-1.93 2.1-5.29 2.12-7.5 0.02-2.2-0.83-5.53-1.9-7.4-1.07-1.86-3.21-4.34-4.76-5.5-2.81-2.09-3.3-2.1-79.5-2.34l-76.68-0.23zm-122.73 53.45c-1.35 0.24-4.09 2.09-6.07 4.11-2.38 2.42-3.86 5.04-4.33 7.67-0.62 3.51 0.46 7.18 8.91 30 5.29 14.3 12.47 33.65 15.96 43 3.48 9.35 12.04 32.3 19.02 51 6.97 18.7 18 48.4 24.5 66 6.5 17.6 16.37 44.15 21.92 59 5.56 14.85 10.88 27.85 11.83 28.89 0.95 1.04 3.19 2.5 4.98 3.25 1.79 0.75 4.6 1.36 6.25 1.36 1.65 0 4.24-0.63 5.75-1.4 1.51-0.78 3.73-2.46 4.93-3.75 1.5-1.62 7.31-18.88 18.79-55.85 9.14-29.42 17.27-55.3 18.07-57.5 0.79-2.2 1.45-4.78 1.45-5.75 0.01-0.96 1.02-2.84 2.26-4.16 1.24-1.33 4.5-3.08 7.25-3.89 2.75-0.81 11.52-3.5 19.5-5.98 7.97-2.48 32.72-10.22 55-17.19 27.2-8.52 41.27-13.4 42.84-14.86 1.29-1.19 2.98-3.4 3.75-4.92 0.78-1.51 1.41-4.1 1.41-5.75 0-1.65-0.61-4.46-1.36-6.25-0.75-1.78-2.21-4.02-3.25-4.96-1.04-0.95-9.54-4.59-18.89-8.11-9.35-3.52-29.83-11.16-45.5-16.98-15.68-5.82-41.78-15.52-58-21.55-16.23-6.03-37.6-13.97-47.5-17.64-9.9-3.67-25.88-9.62-35.5-13.21-9.63-3.59-28.98-10.76-43-15.93-14.03-5.17-26.18-9.33-27-9.25-0.83 0.09-2.61 0.35-3.97 0.6z"/>
</svg>