<svg version="1.2" xmlns="http://www.w3.org/2000/svg" viewBox="0 0 512 512" width="512" height="512">
<path id="Color Fill 1" fill="#000" d="m270.5 86.03l76.68 0.23c76.2 0.24 76.69 0.25 79.5 2.34 1.55 1.16 3.69 3.64 4.76 5.5 1.07 1.87 1.92 5.2 1.9 7.4-0.02 2.21-0.97 5.57-2.12 7.5-1.14 1.92-3.58 4.4-5.4 5.5-3.24 1.95-5.09 2-79.32 2-74.2 0-76.08-0.05-79.4-2-1.86-1.1-4.25-3.13-5.31-4.5-1.05-1.38-2.18-4.53-2.5-7-0.45-3.49-0.1-5.4 1.57-8.5 1.19-2.2 3.84-5.01 5.9-6.24zm-90 24.3c4.6 0.24 8.46 1.1 11.25 2.52 2.34 1.19 5.87 3.62 7.85 5.41 1.98 1.78 4.87 5.95 6.41 9.25 1.94 4.15 3.52 6.2 5.15 6.65 1.29 0.35 16.97 5.65 34.84 11.77 17.88 6.12 40.49 13.82 68 23.08l5.75-3.25c5.25-2.97 6.5-3.25 14.25-3.24 6.85 0.01 9.32 0.44 12.75 2.25 2.34 1.23 5.87 3.7 7.84 5.49 1.97 1.78 4.69 5.5 6.02 8.25 1.34 2.75 2.71 7.47 3.04 10.5q0.61 5.5-0.97 11c-0.86 3.02-2.89 7.3-7.45 13.5l2.36 9.5c1.29 5.22 5.97 24.35 10.41 42.5 4.43 18.15 8.71 35.7 9.51 39 0.8 3.3 2.18 6.45 3.07 7 0.9 0.55 3.61 2.23 6.02 3.75 2.42 1.51 5.78 4.66 7.46 7 1.68 2.33 3.76 6.72 4.62 9.75q1.58 5.5 0.97 11c-0.33 3.02-1.7 7.75-3.04 10.5-1.33 2.75-4.05 6.46-6.02 8.25-1.97 1.78-5.5 4.25-7.84 5.49-3.43 1.8-5.9 2.24-12.75 2.25-7.75 0.01-9-0.28-14.25-3.24-4.58-2.59-6.21-3.06-8-2.3-1.24 0.52-9 3.04-17.25 5.6-8.25 2.56-19.72 6.15-25.5 7.97-5.77 1.83-17.25 5.42-25.5 7.99-8.25 2.57-17.47 5.5-20.5 6.5-3.02 1.01-10.9 3.48-17.5 5.48-6.6 2.01-12.45 3.79-13 3.96-0.55 0.17-1.76 2.5-2.7 5.18-0.93 2.68-3.23 6.67-5.1 8.87-1.88 2.2-5.84 5.35-8.8 7-4.82 2.68-6.31 3-13.9 2.99-6.85-0.01-9.32-0.45-12.75-2.25-2.34-1.24-5.87-3.71-7.84-5.49-1.97-1.79-4.79-5.73-6.25-8.75-2.16-4.48-2.66-6.9-2.64-13 0.02-5.64 0.57-8.68 2.25-12.25 2.06-4.39 2.11-4.97 0.71-7.5-0.83-1.52-5.6-11.3-10.6-21.75-5-10.45-10.35-21.7-11.88-25-1.54-3.3-7.03-14.78-12.21-25.5-5.18-10.73-15.01-31.11-21.85-45.3-12.1-25.1-12.54-25.83-15.94-26.72-1.92-0.51-5.64-2.28-8.25-3.95-2.61-1.67-6.13-4.95-7.81-7.28-1.68-2.34-3.76-6.73-4.62-9.75q-1.58-5.5-0.97-11c0.33-3.03 1.7-7.75 3.04-10.5 1.33-2.75 4.05-6.47 6.02-8.25 1.97-1.79 5.5-4.26 7.84-5.49 3.47-1.83 5.91-2.25 13.25-2.29 6.23-0.03 9.65-0.49 11.11-1.51 1.16-0.8 8.48-6.98 30.39-25.96l-0.01-4.75c-0.01-2.62 0.65-7 1.45-9.75 0.8-2.75 2.83-6.92 4.51-9.25 1.68-2.34 4.74-5.38 6.8-6.76 2.06-1.37 5.55-3.18 7.75-4.01 2.64-1 6.38-1.39 11-1.16zm14.5 54.78c-2.47 1.63-6.3 3.44-8.5 4.04-2.27 0.62-7.24 0.84-11.5 0.51l-7.5-0.58-30.67 27.43c-0.33 12.35-1.04 15.41-3.21 20l-2.84 6c6.26 13.17 11.99 25.1 16.76 35 4.78 9.9 11.61 24.07 15.19 31.5 3.58 7.42 7.97 16.65 9.77 20.5 1.79 3.85 7.07 14.87 11.72 24.5 4.65 9.62 9.99 20.74 11.87 24.69 3.25 6.86 3.6 7.23 7.41 7.81 2.2 0.34 6.48 2.01 9.5 3.72l5.5 3.1c11.63-3.51 19.95-6.09 26-7.99 6.05-1.9 15.05-4.73 20-6.3 4.95-1.57 17.55-5.55 28-8.85 10.45-3.29 25.53-8.05 33.5-10.56l14.5-4.57c1.79-6.63 3.93-10.69 5.9-13.3l3.6-4.75c-4.57-18.22-8.17-32.95-10.93-44.5-2.77-11.55-5.44-22.35-5.93-24-0.5-1.65-2.2-8.44-3.77-15.09l-2.87-12.09c-6.97-2.89-11.05-5.77-13.56-8.28-2.71-2.7-5.32-6.57-6.42-9.54-1.02-2.75-2.11-5.33-2.44-5.73-0.32-0.4-17-6.32-37.08-13.14-20.07-6.83-43.25-14.72-51.5-17.53-8.25-2.82-15.22-5.08-15.5-5.03-0.27 0.04-2.52 1.41-5 3.03z"/>
</svg>