<svg version="1.2" xmlns="http://www.w3.org/2000/svg" viewBox="0 0 512 512" width="512" height="512"> <path id="Color Fill 1" fill="#fff" d="m280.5 22.08c3.85-0.05 9.7 0.62 13 1.48 3.3 0.86 8.48 2.88 11.5 4.48 3.02 1.61 7.07 4.46 12.5 9.75l4-2.34c2.2-1.29 6.7-3.04 10-3.9 3.3-0.86 8.93-1.55 12.5-1.53 3.57 0.02 8.52 0.5 11 1.07 2.48 0.57 7.37 2.47 10.87 4.22 3.77 1.88 8.54 5.44 11.65 8.69 2.9 3.03 6.56 8.2 8.13 11.5 2.59 5.45 2.87 7.13 3.35 30.5l2.75-0.59c1.51-0.32 5.23-0.98 8.25-1.47 3.28-0.53 8.12-0.51 12 0.04 3.57 0.52 8.52 1.65 11 2.53 2.48 0.87 6.3 2.64 8.5 3.93 2.2 1.28 6.14 4.64 8.75 7.45 2.61 2.81 6.21 8.15 11.25 18.61l0.31 128c0.22 90.46-0.02 131.67-0.83 140.5-0.63 6.88-2.18 16.55-3.44 21.5-1.26 4.95-3.73 12.38-5.5 16.5-1.77 4.13-5.26 10.65-7.76 14.5-2.5 3.85-7.98 10.41-12.17 14.58-4.18 4.16-10.31 9.39-13.61 11.61-3.3 2.22-9.6 5.84-14 8.05-4.4 2.2-11.38 5.21-15.5 6.69-4.13 1.47-10.88 3.54-15 4.59-4.13 1.04-13.13 2.81-20 3.91-6.88 1.11-19.25 2.48-27.5 3.06-10.44 0.72-19.56 0.72-30-0.01-8.25-0.58-20.63-2.18-27.5-3.57-6.88-1.38-17.22-4.09-23-6.03-5.78-1.94-15.22-5.94-21-8.89-5.78-2.96-14.1-8.05-18.5-11.31-4.4-3.27-12.5-10.61-18-16.31-5.5-5.71-13.34-14.88-17.42-20.38-4.07-5.49-9.07-12.24-11.11-14.99-2.03-2.75-21.89-29.3-44.12-59-25.25-33.74-41.3-56.06-42.76-59.5-1.28-3.02-2.7-8.2-3.14-11.5-0.44-3.3-0.42-8.48 0.05-11.5 0.46-3.02 1.57-7.52 2.47-10 0.9-2.47 2.92-6.53 4.49-9 1.58-2.47 4.82-6.32 7.2-8.55 2.39-2.23 6.37-5.22 8.84-6.64 2.47-1.42 6.97-3.41 10-4.43 4-1.34 8.5-1.85 16.5-1.86 8.63-0.02 12.56 0.46 18.25 2.23 4.47 1.39 10.23 4.28 15 7.55 6.18 4.22 9.98 8.04 29.75 32.39l0.5-93.59c0.47-86.96 0.64-93.92 2.3-98.1 0.99-2.47 2.85-6.3 4.13-8.5 1.29-2.2 4.3-5.82 6.7-8.05 2.41-2.23 6.4-5.23 8.87-6.67 2.47-1.44 7.2-3.39 10.5-4.34 3.3-0.94 9.37-1.71 13.5-1.71 4.12 0 10.2 0.75 13.5 1.67 3.3 0.92 6.02 1.54 6.05 1.39 0.03-0.16 0.93-2.3 2-4.77 1.07-2.46 4.42-7.01 7.45-10.1 3.02-3.1 7.98-6.89 11-8.43 3.02-1.54 7.52-3.37 10-4.06 2.48-0.69 7.65-1.29 11.5-1.35zm-7.5 30.8c-1.93 1.05-4.4 2.9-5.5 4.12-1.96 2.16-2.01 3.97-2.5 89.03-0.49 84.85-0.55 86.89-2.5 89.53-1.1 1.48-3.27 3.65-4.82 4.82-1.9 1.42-4.2 2.09-7 2.03-2.3-0.05-5.64-0.83-7.43-1.75-1.79-0.91-4.04-2.88-5-4.37-1.61-2.49-1.79-8.45-2.25-77.07l-0.5-74.37c-5.81-5.31-9.41-7.35-11.75-7.96-3.17-0.83-5.52-0.81-9.25 0.07-2.75 0.65-6.13 1.98-7.5 2.96-1.38 0.98-3.29 3.43-4.25 5.43-1.63 3.41-1.75 11.04-1.75 115.65v112c-4.26 4.91-6.96 6.93-8.75 7.67-1.79 0.73-4.38 1.33-5.75 1.33-1.38 0-3.69-0.56-5.14-1.25-1.45-0.69-13.43-14.08-26.63-29.75-14.04-16.69-25.9-29.85-28.61-31.75-2.54-1.78-6.87-3.76-9.62-4.38-2.77-0.64-7.45-0.86-10.5-0.51-3.03 0.35-7.3 1.69-9.5 2.99-2.2 1.29-5 3.88-6.22 5.75-1.63 2.49-2.23 4.94-2.25 9.15-0.02 3.41 0.64 7.07 1.62 9 0.9 1.79 8.47 12.25 16.82 23.25 8.35 11 31.39 41.6 51.2 68 21.65 28.85 39.18 51.19 43.93 56.01 4.34 4.4 11.05 10.1 14.9 12.67 3.85 2.57 10.37 6.23 14.5 8.12 4.12 1.89 11.1 4.58 15.5 5.98 4.4 1.4 13.18 3.6 19.5 4.88 10.32 2.1 14.18 2.34 37.5 2.33 22.3-0.01 27.71-0.32 38-2.18 6.6-1.19 16.5-3.61 22-5.36 5.5-1.76 13.15-4.76 17-6.69 3.85-1.92 9.7-5.41 13-7.75 3.3-2.34 8.06-6.45 10.58-9.13 2.52-2.69 6.18-7.36 8.13-10.38 1.95-3.02 4.67-8.2 6.05-11.5 1.37-3.3 3.27-9.15 4.21-13 0.95-3.85 2.34-11.73 3.11-17.5 1.11-8.44 1.39-34.65 1.43-133.5l0.05-123c-3.53-5.29-6.36-7.73-8.56-8.84-2.44-1.23-5.96-2.02-9-2.01-3.24 0.01-6.41 0.78-9 2.2-2.2 1.2-4.79 3.53-5.75 5.17-1.62 2.75-1.75 7.87-1.77 67.23-0.02 61.89-0.1 64.41-2 68.5-1.11 2.37-3.42 5.13-5.23 6.25-1.99 1.22-5 1.99-7.75 1.99-2.57 0-5.66-0.75-7.2-1.75-1.49-0.96-3.52-2.87-4.5-4.24-1.69-2.35-1.83-8.09-2.3-96.17l-0.5-93.67c-3.88-4.2-6.8-6.25-9-7.27-2.2-1.02-6.02-1.85-8.5-1.85-2.48 0-6.3 0.83-8.5 1.84-2.2 1.01-4.9 2.85-6 4.08-1.96 2.2-2.01 4.03-2.5 88.39-0.5 85.97-0.5 86.16-2.65 89.65-1.18 1.92-3.88 4.34-6 5.36-2.76 1.33-4.99 1.69-7.85 1.24-2.2-0.34-5.01-1.29-6.25-2.11-1.24-0.82-3.15-2.95-4.25-4.74-1.95-3.18-1.99-5.06-2-91 0-76.01-0.2-88.18-1.5-91-0.83-1.79-3.16-4.38-5.19-5.75-2.84-1.93-5.16-2.56-10.24-2.76-4.94-0.2-7.44 0.21-10.07 1.64z"/>
</svg>