<svg version="1.2" xmlns="http://www.w3.org/2000/svg" viewBox="0 0 512 512" width="512" height="512"><path fill="#fff" d="m470.15 149.76l3.45 8.08v261.64c0 23.19-19.01 42.15-42.15 42.15l-259.21-0.01c-23.2 0-42.14-18.95-42.14-42.16v-56.5c0-14.7 22.34-14.7 22.34 0v56.5c0 10.89 8.93 19.83 19.82 19.83h259.22c10.97 0 19.82-9 19.82-19.83l-0.02-250.46h-58.36c-20.84 0-37.93-17.1-37.93-37.94v-58.36h-182.75c-10.96 0-19.83 8.97-19.83 19.82v56.51c0 14.69-22.33 14.69-22.33 0v-56.51c0-23.18 18.99-42.15 42.14-42.15h193.92l7.89 3.27zm-258.19 47.93c-10.4-10.39 5.39-26.18 15.79-15.79l67.93 68.45c2.63 4.47 1.78 9.97-1.75 13.53l-66.18 66.21c-10.4 10.39-26.19-5.4-15.79-15.79l47.13-47.15h-209.68c-14.69 0-14.69-22.33 0-22.33h209.68zm165.36-109.2v42.59c0 8.61 7 15.61 15.61 15.61h42.59z"/>
</svg>
