<svg version="1.2" xmlns="http://www.w3.org/2000/svg" viewBox="0 0 512 512" width="512" height="512">
	<path id="Color Fill 1" fill="#ffffff" d="m255.75 71.04c234.47-0.04 240.34 0.01 244 1.87 2.06 1.05 4.96 3.19 6.45 4.75 1.48 1.56 3.39 4.53 4.25 6.59 0.85 2.06 1.55 5.55 1.55 7.75 0 2.2-0.7 5.69-1.55 7.75-0.86 2.06-2.77 5.04-4.25 6.63-1.49 1.58-4.5 3.71-6.7 4.72-3.86 1.79-12.51 1.86-243.25 1.88-214.06 0.02-239.64-0.14-243-1.53-2.06-0.86-5.04-2.77-6.63-4.25-1.58-1.49-3.71-4.5-4.72-6.7-1.02-2.2-1.86-6.03-1.86-8.5 0-2.47 0.84-6.3 1.86-8.5 1.01-2.2 3.14-5.18 4.72-6.63 1.59-1.45 4.23-3.34 5.88-4.21 2.71-1.43 26.35-1.58 243.25-1.62zm240.75 163.46l4.75 2.75c3.21 1.86 5.62 4.29 7.44 7.5 1.48 2.61 2.89 6.55 3.13 8.75 0.24 2.2-0.12 5.8-0.81 8-0.69 2.2-2.44 5.55-3.88 7.44-1.45 1.9-4.88 4.48-12.63 8.04h-477l-5-2.3c-2.75-1.26-6.18-3.84-7.61-5.74-1.44-1.89-3.13-5.02-3.77-6.94-0.63-1.93-1.14-5.08-1.13-7 0.02-1.93 1.07-5.75 2.33-8.5 1.31-2.84 3.79-6.07 5.74-7.47 1.89-1.36 5.01-3.03 6.94-3.71 2.75-0.98 54.59-1.2 481.5-0.82zm-240.5 163.54c229.24 0 239.67 0.08 243.5 1.82 2.2 1 5.46 3.46 7.25 5.48 1.79 2.01 3.7 5.35 4.24 7.41 0.55 2.06 1 5.21 1 7 0.01 1.79-0.69 4.94-1.54 7-0.86 2.06-2.77 5.03-4.25 6.59-1.49 1.56-4.39 3.7-6.45 4.75-3.66 1.86-9.57 1.91-243.75 1.91-157.67 0-240.86-0.34-242.5-1-1.38-0.55-4.15-2.46-6.16-4.25-2.02-1.79-4.48-5.05-5.48-7.25-1-2.2-1.82-5.58-1.83-7.5-0.01-1.93 0.43-5.19 0.98-7.25 0.54-2.06 2.45-5.4 4.24-7.41 1.79-2.02 5.05-4.48 7.25-5.48 3.83-1.74 14.26-1.82 243.5-1.82z"/>
</svg>