<svg version="1.2" xmlns="http://www.w3.org/2000/svg" viewBox="0 0 512 512" width="512" height="512">
<path id="Color Fill 1" fill="#fff" d="m272 98c-1.1 1.1-2 3.24-1.99 4.75 0 2.15 2.24 4.99 10.25 13.01l10.24 10.25c-51.62-0.08-53.14 0.03-55.75 1.96-1.54 1.13-2.77 3.02-2.79 4.28-0.03 1.24 0.83 3.38 1.91 4.75l1.95 2.5 53.68 0.52c-17.54 17.59-19.44 20.06-19.5 22.48-0.03 1.65 0.74 3.78 1.72 4.72 0.98 0.95 3.13 1.73 4.78 1.72 2.49 0 5.03-2.01 14.84-11.72 6.51-6.45 12.69-13.41 13.75-15.47 1.22-2.39 1.92-5.83 1.92-9.5 0.02-4.63-0.54-6.62-2.85-10.25-1.58-2.47-7.88-9.34-14.01-15.25-8.12-7.83-11.83-10.75-13.65-10.75-1.37 0-3.4 0.9-4.5 2zm72.78 8.75c-6.09 5.91-12.36 12.78-13.94 15.25-2.31 3.63-2.87 5.62-2.85 10.25 0 3.67 0.7 7.11 1.92 9.5 1.06 2.06 7.24 9.02 13.75 15.47 9.68 9.58 12.39 11.73 14.84 11.78 1.65 0.04 3.78-0.74 4.72-1.72 0.95-0.98 1.72-3.13 1.72-4.78-0.01-2.45-1.79-4.78-9.73-12.74l-9.71-9.74 53.68-0.52c3.03-3.87 3.89-6.01 3.86-7.25-0.02-1.26-1.25-3.15-2.79-4.28-2.61-1.93-4.13-2.04-29.25-2l-26.5 0.04c18.25-18.27 20.49-21.11 20.49-23.26 0.01-1.51-0.89-3.65-1.99-4.75-1.1-1.1-3.16-2-4.57-2-1.92 0-5.4 2.74-13.65 10.75zm-228.75 65.97c-1.35 0.24-4.09 2.09-6.07 4.11-2.38 2.42-3.86 5.04-4.33 7.67-0.62 3.51 0.47 7.18 8.91 30 5.29 14.3 12.47 33.65 15.96 43 3.48 9.35 12.04 32.3 19.02 51 6.97 18.7 18 48.4 24.5 66 6.5 17.6 16.37 44.15 21.92 59 5.56 14.85 10.88 27.85 11.83 28.89 0.95 1.04 3.19 2.5 4.98 3.25 1.79 0.75 4.6 1.36 6.25 1.36 1.65 0 4.24-0.63 5.75-1.4 1.51-0.78 3.73-2.47 4.93-3.75 1.5-1.63 7.31-18.88 18.79-55.85 9.14-29.43 17.27-55.3 18.07-57.5 0.79-2.2 1.45-4.79 1.45-5.75 0.01-0.96 1.02-2.84 2.26-4.17 1.24-1.33 4.5-3.08 7.25-3.88 2.75-0.81 11.52-3.5 19.5-5.98 7.98-2.48 32.73-10.22 55-17.2 27.2-8.52 41.27-13.39 42.85-14.85 1.28-1.19 2.97-3.41 3.75-4.92 0.77-1.51 1.4-4.1 1.4-5.75 0-1.65-0.61-4.46-1.36-6.25-0.75-1.79-2.21-4.02-3.25-4.96-1.04-0.95-9.54-4.6-18.89-8.11-9.35-3.52-29.82-11.16-45.5-16.98-15.68-5.82-41.77-15.52-58-21.55-16.23-6.03-37.6-13.97-47.5-17.64-9.9-3.67-25.88-9.62-35.5-13.21-9.62-3.6-28.97-10.77-43-15.94-14.03-5.16-26.17-9.32-27-9.24-0.83 0.08-2.61 0.35-3.97 0.6z"/>
</svg>