<svg version="1.2" xmlns="http://www.w3.org/2000/svg" viewBox="0 0 512 512" width="512" height="512">
<path id="Color Fill 1" fill="#fff" d="m301.64 58.75c-7.78 7.56-14.45 14.42-14.82 15.25-0.37 0.83-0.71 2.06-0.75 2.75-0.04 0.69 0.83 2.15 1.93 3.25 1.59 1.59 3.33 2 8.5 2h6.5v35h-35c0-11.67-0.41-13.41-2-15q-2-2-4.5-1.5c-1.51 0.3-7.73 5.86-15.75 14.07-7.29 7.47-13.7 14.44-14.25 15.5q-1 1.93 0 3.86c0.55 1.06 6.96 8.03 14.25 15.5 8.02 8.21 14.24 13.77 15.75 14.07q2.5 0.5 4.5-1.5c1.59-1.59 2-3.33 2-8.5v-6.5h35v35c-11.67 0-13.41 0.41-15 2q-2 2-1.5 4.5c0.3 1.51 5.86 7.73 14.07 15.75 7.47 7.29 14.44 13.7 15.5 14.25q1.93 1 3.86 0c1.06-0.55 8.03-6.96 15.5-14.25 8.21-8.02 13.77-14.24 14.07-15.75q0.5-2.5-1.5-4.5c-1.59-1.59-3.33-2-8.5-2h-6.5v-35h35c0 11.67 0.41 13.41 2 15q2 2 4.5 1.5c1.51-0.3 7.73-5.86 15.75-14.07 7.29-7.47 13.7-14.44 14.25-15.5q1-1.93 0-3.86c-0.55-1.06-6.96-8.03-14.25-15.5-8.02-8.21-14.24-13.77-15.75-14.07q-2.5-0.5-4.5 1.5c-1.59 1.59-2 3.33-2 8.5v6.5h-35v-35c11.67 0 13.41-0.41 15-2 1.1-1.1 1.97-2.56 1.93-3.25-0.04-0.69-0.38-1.92-0.75-2.75-0.37-0.83-7.09-7.69-14.93-15.25-9.15-8.83-15.01-13.75-16.36-13.75-1.36 0-7.14 4.89-16.25 13.75zm-185.61 113.97c-1.35 0.24-4.09 2.09-6.07 4.11-2.38 2.42-3.86 5.04-4.33 7.67-0.62 3.51 0.47 7.18 8.91 30 5.29 14.3 12.47 33.65 15.96 43 3.48 9.35 12.04 32.3 19.02 51 6.97 18.7 18 48.4 24.5 66 6.5 17.6 16.37 44.15 21.92 59 5.56 14.85 10.88 27.85 11.83 28.89 0.95 1.04 3.19 2.5 4.98 3.25 1.79 0.75 4.6 1.36 6.25 1.36 1.65 0 4.24-0.63 5.75-1.4 1.51-0.78 3.73-2.47 4.93-3.75 1.5-1.63 7.31-18.88 18.79-55.85 9.14-29.43 17.27-55.3 18.07-57.5 0.79-2.2 1.45-4.79 1.45-5.75 0.01-0.96 1.02-2.84 2.26-4.17 1.24-1.33 4.5-3.08 7.25-3.88 2.75-0.81 11.53-3.5 19.5-5.98 7.98-2.48 32.73-10.22 55-17.2 27.2-8.52 41.27-13.39 42.85-14.85 1.28-1.19 2.97-3.41 3.75-4.92 0.77-1.51 1.4-4.1 1.4-5.75 0-1.65-0.61-4.46-1.36-6.25-0.75-1.79-2.21-4.02-3.25-4.96-1.04-0.95-9.54-4.6-18.89-8.11-9.35-3.52-29.82-11.16-45.5-16.98-15.67-5.82-41.77-15.52-58-21.55-16.22-6.03-37.6-13.97-47.5-17.64-9.9-3.67-25.87-9.62-35.5-13.21-9.62-3.6-28.97-10.77-43-15.94-14.02-5.16-26.17-9.32-27-9.24-0.82 0.08-2.61 0.35-3.97 0.6z"/>
</svg>