<svg version="1.2" xmlns="http://www.w3.org/2000/svg" viewBox="0 0 512 512" width="512" height="512">
	<path id="Color Fill 1" fill="#000" d="m368.75 16.07c6.74-0.04 15.51 0.56 19.5 1.33 3.99 0.78 10.18 2.39 13.75 3.59 3.57 1.21 9.65 3.78 13.5 5.71 3.85 1.94 9.48 5.21 12.5 7.26 3.02 2.05 8.39 6.39 11.92 9.64 3.54 3.24 9.1 9.5 12.36 13.9 3.27 4.4 7.9 12.05 10.31 17 2.4 4.95 5.38 13.05 6.62 18 1.23 4.95 2.37 9.11 2.52 9.25 0.15 0.14 5.06-3.46 10.93-8 5.86-4.54 10.75-8.25 10.87-8.25 0.12 0 2.15 2.47 4.51 5.5 2.36 3.03 6.47 8.31 13.96 18l-54 42-26.64-20.75c-14.65-11.41-26.76-20.97-26.92-21.25-0.16-0.28 3.54-5.45 8.23-11.5 4.68-6.05 8.92-11.11 9.42-11.25 0.5-0.14 4.81 2.79 9.59 6.5 7.29 5.67 8.55 6.35 7.9 4.25-0.43-1.38-2.26-5.65-4.07-9.5-1.81-3.85-5.62-9.92-8.48-13.5-2.85-3.58-7.74-8.67-10.86-11.32-3.12-2.66-9.72-6.8-14.67-9.22-4.95-2.42-12.26-5.09-16.25-5.93-3.99-0.84-11.41-1.54-16.5-1.54-6.06-0.01-12.01 0.69-17.25 2.03-4.4 1.12-11.15 3.62-15 5.55-3.85 1.92-9.81 5.74-13.25 8.47-3.44 2.73-8.3 7.55-10.81 10.71-2.5 3.16-6.52 9.8-8.94 14.75-2.51 5.17-5.04 12.3-5.94 16.75-0.86 4.26-1.56 9.33-1.56 14.75h-30v-5c0-2.75 0.93-9.61 2.07-15.25 1.15-5.64 3.57-13.85 5.39-18.25 1.82-4.4 4.77-10.47 6.55-13.5 1.79-3.02 5.16-7.98 7.5-11 2.34-3.02 7.12-8.21 10.62-11.53 3.5-3.32 8.62-7.64 11.37-9.6 2.75-1.97 7.02-4.74 9.5-6.16 2.48-1.42 8.1-4.03 12.5-5.78 4.4-1.76 11.82-4.01 16.5-4.99 5.34-1.13 13.05-1.83 20.75-1.87zm-368.75 108.93l159.5 0.1 44 34.83 205.5 0.07v66h51c33.33 0 51 0.35 51 1 0 0.55-14.45 54.21-32.11 119.25-18.24 67.19-33.24 120.6-34.75 123.69-1.45 2.99-4.7 7.72-7.23 10.5-2.52 2.78-6.8 6.49-9.5 8.23-2.7 1.75-7.72 4.11-11.16 5.25-6.24 2.08-6.64 2.08-190 2.09-160.4 0-184.48-0.19-189.5-1.5-3.16-0.83-7.89-2.58-10.5-3.88-2.61-1.31-7.22-4.63-10.25-7.39-3.02-2.77-7.07-7.65-9-10.85-1.92-3.21-4.26-8.77-5.19-12.36-1.56-6-1.7-19.84-1.75-170.78zm30.03 326.5c3.54 7.03 6.1 9.94 8.39 11.44 3.28 2.14 5.11 2.56 11 2.56 4.66 0 8.27-0.59 10.58-1.72 1.92-0.94 5.07-3.25 7-5.13 1.92-1.88 4.28-5.16 5.24-7.28 0.96-2.13 15.04-52.92 31.3-112.87 16.25-59.95 29.75-109.79 30-110.75 0.43-1.65 7.13-1.75 122.96-1.75h122.5v-36l-185.5 0.04-45-35.1-118.5 0.06zm126.56-193.75c-0.28 0.96-12.46 45.85-27.06 99.75-14.61 53.9-27.45 100.36-28.54 103.25l-1.99 5.25c305 0 307.05-0.03 311-2 2.32-1.16 4.92-3.57 6.2-5.75 1.29-2.19 13.16-44.13 28.52-100.75 14.48-53.35 26.54-98.01 26.8-99.25l0.48-2.25c-306.53 0-314.92 0.09-315.41 1.75zm31.41 148.25h181v30h-181z"/>
</svg>