<svg version="1.2" xmlns="http://www.w3.org/2000/svg" viewBox="0 0 512 512" width="512" height="512">
<path id="Color Fill 1" fill="#fff" d="m227 42.95c-6.88 1.03-15.65 2.57-19.5 3.42-3.85 0.85-9.47 2.22-12.5 3.03-3.03 0.81-9.78 3.03-15 4.93-5.22 1.9-13.1 5.12-17.5 7.16-4.4 2.04-11.38 5.76-15.5 8.27-4.13 2.5-9.3 5.71-11.5 7.13-2.2 1.41-8.28 5.8-13.5 9.76-5.22 3.96-13.12 10.71-17.55 15.02-4.43 4.31-11.22 11.66-15.09 16.33-3.88 4.67-10.06 13-13.74 18.5-3.68 5.5-8.88 14.28-11.57 19.5-2.68 5.22-7.09 14.9-9.8 21.5-2.7 6.6-6.08 16.95-7.5 23-1.43 6.05-3.3 14.49-4.17 18.75-0.87 4.26-2.07 14.39-2.67 22.5-0.8 10.9-0.78 18.66 0.07 29.75 0.64 8.25 2.02 19.05 3.07 24 1.04 4.95 2.79 12.38 3.87 16.5 1.09 4.13 3.59 12 5.57 17.5 1.97 5.5 6.21 15.4 9.42 22 3.21 6.6 9.32 17.18 13.58 23.5 4.25 6.32 10.49 14.65 13.85 18.5 3.36 3.85 9.05 9.93 12.64 13.52 3.58 3.59 8.79 8.54 11.57 11 2.78 2.46 6.15 5.38 7.5 6.48 1.35 1.11 5.37 4.05 8.95 6.56 3.57 2.5 9.88 6.63 14 9.18 4.13 2.55 12.22 6.86 18 9.6 5.78 2.73 15.22 6.54 21 8.47 5.78 1.93 13.2 4.2 16.5 5.05 3.3 0.84 10.5 2.42 16 3.51 5.5 1.09 15.63 2.52 22.5 3.17 9.7 0.93 16.31 0.93 29.5 0.01 9.35-0.66 22.18-2.26 28.5-3.56 6.32-1.3 14.65-3.35 18.5-4.54 3.85-1.2 11.95-4.09 18-6.43 6.05-2.34 14.38-5.95 18.5-8.02 4.13-2.08 10.88-5.82 15-8.31 4.13-2.5 12-7.92 17.5-12.04 5.5-4.13 15.2-12.71 21.57-19.08 6.36-6.36 13.41-14.05 15.66-17.07 2.26-3.02 5.08-8.43 6.28-12 1.69-5.06 2.02-7.72 1.51-12-0.36-3.02-1.57-7.3-2.67-9.5-1.11-2.2-3.89-5.95-6.18-8.33-2.3-2.39-5.97-5.27-8.17-6.41-2.63-1.37-6.57-2.23-11.5-2.51-7-0.41-7.97-0.21-14.5 3.06-4.14 2.07-8.59 5.27-10.89 7.84-2.14 2.39-6.86 7.44-10.5 11.22-3.64 3.78-10.66 10.13-15.61 14.1-4.95 3.97-12.6 9.26-17 11.75-4.4 2.5-10.02 5.46-12.5 6.59-2.48 1.14-7.2 3.17-10.5 4.53-3.3 1.36-8.7 3.17-12 4.02-3.3 0.85-9.6 2.33-14 3.29-6.01 1.31-12.85 1.75-27.5 1.79-11.89 0.04-22.23-0.44-26.5-1.23-3.85-0.71-10.6-2.43-15-3.82-4.4-1.4-12.28-4.13-17.5-6.07-5.22-1.95-12.2-4.89-15.5-6.55-3.3-1.65-10.28-6.06-15.5-9.79-5.22-3.73-12.44-9.64-16.03-13.13-3.59-3.49-8.9-9.05-11.8-12.35-2.9-3.3-7.22-8.93-9.6-12.5-2.38-3.57-6.1-9.88-8.27-14-2.16-4.13-5.66-11.55-7.76-16.5-2.1-4.95-5.05-13.95-6.54-20-1.5-6.05-3.28-16.4-3.96-23-0.94-9.16-0.96-14.96-0.11-24.5 0.62-6.88 2.41-17.68 3.98-24 1.58-6.32 5.01-16.9 7.63-23.5 2.62-6.6 6.32-14.47 8.23-17.5 1.9-3.03 4.64-7.3 6.07-9.5 1.44-2.2 4.2-6.02 6.14-8.48 1.94-2.47 4.87-6.02 6.52-7.88 1.65-1.87 5.25-5.55 8-8.19 2.75-2.63 6.57-6.17 8.5-7.87 1.93-1.7 7.1-5.52 11.5-8.48 4.4-2.97 12.5-7.66 18-10.42 5.5-2.77 15.4-6.81 22-8.99 6.93-2.28 17.07-4.7 24-5.72 9.33-1.38 15.45-1.64 27.5-1.19 8.52 0.32 18.88 1.28 23 2.13 4.13 0.85 9.75 2.17 12.5 2.93 2.75 0.76 9.73 3.18 15.5 5.37 5.77 2.2 13.76 5.75 17.75 7.89 3.98 2.15 11.36 6.83 16.39 10.4 5.19 3.69 14.07 11.59 20.51 18.25 6.24 6.46 11.35 12.2 11.35 12.75 0 0.55-2.59 2.54-5.75 4.42-3.16 1.88-7.62 5.15-9.9 7.25-2.68 2.47-4.41 5.07-4.87 7.33-0.39 1.93-0.44 4.74-0.1 6.25 0.34 1.51 1.7 3.76 3.02 5 1.32 1.24 6.84 4.21 12.25 6.61 5.42 2.4 21.33 9.22 35.35 15.16 14.02 5.94 30.11 12.64 35.75 14.89 5.64 2.25 11.71 4.09 13.5 4.09 1.79 0.01 4.82-0.84 6.75-1.87 1.93-1.03 4.85-3.55 6.5-5.6l3-3.71c0-94.92-0.22-102.92-1.5-105.28-0.82-1.52-2.74-3.39-4.25-4.15-1.51-0.77-4.32-1.39-6.25-1.39-1.93 0-4.96 0.73-6.75 1.63-1.79 0.89-8.11 4.83-14.06 8.75l-10.81 7.12c-4.94-6.2-9.79-11.83-13.95-16.5-4.17-4.67-12.42-12.78-18.34-18-5.92-5.22-15.56-12.79-21.43-16.8-5.86-4.02-16.06-9.97-22.66-13.23-6.6-3.26-16.95-7.73-23-9.94-6.05-2.2-17.3-5.55-25-7.44-7.7-1.88-17.82-3.94-22.5-4.57-4.68-0.63-15.93-1.32-25-1.54-12.65-0.3-19.42 0.04-29 1.47z"/>
</svg>