<svg version="1.2" xmlns="http://www.w3.org/2000/svg" viewBox="0 0 512 512" width="512" height="512">
	<path fill="#000" d="m467.72 412.93l-105.27-105.27c-0.35-0.35-0.74-0.57-1.09-0.92 19.46-25.37 31.03-57.05 31.03-91.39 0-83.03-67.54-150.62-150.62-150.62-83.08 0-150.67 67.59-150.67 150.67v9.74l-38.51-38.51-14.19 14.19 63.89 63.88 63.88-63.88-14.18-14.19-40.78 40.78v-12.06c0-71.98 58.53-130.51 130.52-130.51 71.98 0 130.51 58.53 130.51 130.51 0 71.98-58.53 130.56-130.51 130.56v20.07c34.33 0 66.02-11.58 91.39-31.03 0.3 0.34 0.56 0.74 0.91 1.08l105.28 105.28c3.91 3.91 9.05 5.87 14.18 5.87 5.14 0 10.27-1.96 14.19-5.87 7.88-7.79 7.88-20.5 0.04-28.38z"/>
</svg>
