<svg version="1.2" xmlns="http://www.w3.org/2000/svg" viewBox="0 0 512 512" width="512" height="512"> <path id="Color Fill 1" fill="#fff" d="m133 38.61c1.93 0.32 4.63 1.18 6 1.91 1.38 0.73 75.33 74.15 164.34 163.15 89.01 89.01 163.37 163.52 165.25 165.58 1.87 2.06 3.86 5.55 4.41 7.75 0.69 2.74 0.66 5.34-0.08 8.25-0.95 3.76-5.75 8.94-41.25 44.57-22.09 22.18-41.52 41.04-43.17 41.93-1.65 0.88-5.02 1.6-7.5 1.6-2.48 0-5.85-0.71-7.5-1.59-1.65-0.87-76.95-75.54-167.33-165.92-90.38-90.39-165.05-165.69-165.93-167.34-0.88-1.65-1.6-5.03-1.6-7.5 0.01-2.48 0.73-5.85 1.62-7.5 0.88-1.65 19.53-20.9 41.42-42.77 30.64-30.6 40.74-40.11 43.82-41.24 2.34-0.86 5.45-1.23 7.5-0.88zm-40.01 54.89l-37.49 37.5 325.5 325.5 75.5-75.48-21.62-21.52c-38.68 38.32-40.1 39.5-43.63 39.52-2.38 0.01-4.57-0.72-6-2-1.62-1.46-2.25-3.14-2.25-6.02 0-3.86 0.67-4.67 19.5-23.5 10.73-10.73 19.5-19.84 19.51-20.25 0-0.41-4.73-5.48-10.5-11.25l-10.51-10.5c-20.24 20.34-21.93 21.63-25.17 21.81-2.73 0.14-4.34-0.45-6.28-2.31-1.87-1.79-2.59-3.49-2.54-6 0.05-3.09 1.34-4.8 11-14.5l10.95-11-21.92-22c-25.99 26.15-35.23 35.26-37.29 37.12-2.15 1.94-4.82 3.38-6.25 3.38-1.37 0-3.85-1.13-5.5-2.5-2.29-1.9-3-3.33-3-6 0-3.21 1.66-5.17 20.08-23.75l20.08-20.25-21.66-21.46c-20.42 20.32-22.47 21.9-25.25 21.93-2.3 0.02-4.12-0.84-6.25-2.97-1.65-1.65-3-3.68-3-4.5 0-0.82 0.5-2.51 1.11-3.75 0.61-1.24 5.67-6.86 11.25-12.5l10.14-10.25c-16.27-16.28-21.34-21.01-21.75-21.01-0.41 0.01-9.52 8.78-20.25 19.51q-19.51 19.51-22.25 20.08c-1.72 0.36-3.6-0.02-5-1-1.24-0.87-2.96-2.59-3.83-3.83-0.98-1.4-1.36-3.28-1-5q0.57-2.74 20.08-22.25c10.73-10.73 19.5-19.84 19.51-20.25 0-0.41-4.73-5.48-10.5-11.25l-10.51-10.5c-15.89 15.72-21.51 20.78-22.75 21.39-1.24 0.61-2.92 1.11-3.75 1.11-0.82 0-2.85-1.35-4.5-3-2.13-2.13-2.99-3.95-2.97-6.25 0.03-2.78 1.61-4.83 10.98-14.25l10.95-11-21.46-21.66c-38.83 38.5-40.79 40.16-44 40.16-2.67 0-4.1-0.71-6-3-1.37-1.65-2.5-4.13-2.5-5.5 0-1.43 1.44-4.1 3.38-6.25 1.86-2.06 10.97-11.3 20.25-20.52l16.87-16.77-22-21.92c-20.7 20.61-22.41 21.9-25.5 21.95-2.51 0.05-4.21-0.67-6-2.54-1.86-1.94-2.45-3.55-2.31-6.28 0.18-3.24 1.47-4.93 11-14.42l10.81-10.75c-16.27-16.28-21.24-21.01-21.53-21.01-0.3 0.01-9.31 8.79-20.04 19.51-19.16 19.17-19.57 19.5-23.71 19.5-3.11 0-4.75-0.59-6.24-2.25-1.28-1.43-2.01-3.62-2-6 0.02-3.53 1.2-4.95 19.77-23.69l19.75-19.94c-16.27-16.36-21.23-21.11-21.51-21.11-0.27-0.01-17.37 16.87-38 37.49z"/>
</svg>