<svg version="1.2" xmlns="http://www.w3.org/2000/svg" viewBox="0 0 200 200" width="200" height="200"> <path id="Color Fill 1" fill="#000" d="m159.5 7.01l23.51 23.49v77.75c-0.01 67.1-0.22 78.16-1.51 80.75-0.85 1.7-3.02 3.65-5 4.5-3.01 1.29-13.89 1.5-77 1.5-63.33 0-73.91-0.21-76.5-1.5-1.65-0.82-3.68-2.85-4.5-4.5-1.3-2.6-1.5-14.44-1.5-88 0-73.56 0.2-85.4 1.5-88 0.82-1.65 2.74-3.66 4.25-4.46 2.33-1.24 12.98-1.47 136.75-1.53zm-135.03 7.82c-1.75 1.74-1.82 5.7-1.68 86.25 0.14 79.57 0.25 84.52 1.93 86.14 1.39 1.35 3.6 1.74 10.03 1.75l8.25 0.03-0.06-87.5c3.68-5.56 6.06-7.49 8.09-8.19 2.49-0.86 16.79-1.21 50.47-1.25 42.84-0.05 47.3 0.1 50.43 1.69 1.88 0.96 4.36 3.02 5.5 4.57 2.01 2.74 2.08 4.1 2.32 46.75l0.25 43.93c11.94 0.06 13.9-0.35 15.22-1.72 1.61-1.65 1.73-7.2 1.76-77.78l0.03-76-20.51-20.49-11.5-0.01-0.5 48.16-7.5 6.84h-92l-7.5-6.84-0.53-48.16c-9.18 0-11.19 0.51-12.5 1.83zm18.52 20.42c0 18.18 0.27 22.66 1.5 24.5l1.51 2.25h90c2.74-4.09 3.01-8.57 3.01-26.75l-0.01-22.25h-6.26l-0.24 39.5c-24.93 0.41-29.36 0.13-30.29-0.76-0.98-0.93-1.29-5.9-1.25-19.99l0.04-18.75h-58zm64.01 11.75h20v-34h-20zm-55.42 53.04l-2.77 2.11 0.19 86.85h105c-0.48-83.66-0.64-87.06-2.29-88.72-1.65-1.65-5.25-1.8-49.57-2.06-47.21-0.27-47.82-0.25-50.56 1.82zm49.74 15.92c33.25-0.04 38.34 0.15 39.43 1.5 0.69 0.84 1.02 2.21 0.75 3.04-0.44 1.3-5.84 1.5-40.5 1.5-34.67 0-40.07-0.2-40.5-1.5-0.28-0.83 0.2-2.17 1.07-3 1.34-1.28 7.22-1.51 39.75-1.54zm0.01 25.28c39.26 0.25 40.15 0.3 40.48 2.26 0.18 1.1-0.26 2.33-0.99 2.73-0.73 0.41-18.53 0.75-39.57 0.75-32.68 0.02-38.47-0.2-39.75-1.48-0.83-0.82-1.23-2.18-0.91-3.01 0.52-1.32 5.69-1.48 40.74-1.25zm40.17 24.26v5l-39.5 0.3c-34.74 0.27-39.65 0.12-40.75-1.25-0.94-1.16-0.97-1.93-0.13-3.06 0.98-1.31 6.35-1.48 80.38-0.99z"/>
</svg>