<svg version="1.2" xmlns="http://www.w3.org/2000/svg" viewBox="0 0 512 512" width="512" height="512">
<path id="Color Fill 1" fill="#fff" d="m299 61.69c-1.93 0.2-8.45 1.27-14.5 2.38-6.05 1.11-14.6 3.16-19 4.56-4.4 1.39-11.82 4.33-16.5 6.52-4.68 2.19-11.2 5.91-14.5 8.27-3.3 2.35-7.98 6.48-10.39 9.18-2.41 2.69-5.79 7.83-7.5 11.4-2.73 5.7-3.11 7.54-3.1 15 0 7.35 0.4 9.31 2.92 14.5 1.66 3.4 5.77 8.96 9.5 12.84 6.13 6.4 6.57 7.16 6.62 11.5q0.05 4.66 2.65 9.16c1.63 2.85 4.18 5.4 6.94 6.96 3.05 1.72 5.87 2.45 9.36 2.44 2.82-0.01 6.53-0.81 8.5-1.83 1.93-0.99 4.52-2.76 5.76-3.94l2.25-2.13c4.71 4.65 7.03 8.03 8.19 10.5 1.86 3.98 2.09 6.15 1.95 18.75-0.11 10.3 0.23 15.01 1.22 17 0.75 1.51 2.77 3.99 4.5 5.5 1.72 1.51 4.82 3.2 6.88 3.74 2.06 0.55 6.56 1 10 1 5.6 0.01 6.41-0.25 7.75-2.49 1.09-1.82 1.23-3.05 0.5-4.5-0.55-1.1-1.34-2.06-1.75-2.14-0.41-0.07-3.45-0.27-6.75-0.44-3.3-0.16-7.26-0.89-8.8-1.61-1.55-0.72-3.11-2.21-3.48-3.31-0.36-1.1-0.68-8.53-0.69-16.5-0.03-11.87-0.35-15.09-1.78-17.75-0.96-1.79-1.64-3.25-1.5-3.25 0.14 0 3.63 0.64 7.75 1.41 4.13 0.78 11.77 1.71 17 2.08 5.34 0.38 14.32 0.17 20.5-0.46 6.05-0.63 15.05-2.01 20-3.08 4.95-1.07 13.27-3.36 18.5-5.07 5.23-1.72 13.32-4.9 18-7.07 4.68-2.16 12.1-6.32 16.5-9.24 4.4-2.92 10.17-7.73 12.83-10.69 2.65-2.96 5.97-7.85 7.37-10.88 2.17-4.7 2.48-6.6 2.17-13.02-0.29-5.92-1.04-8.9-3.53-14-2.17-4.44-5.32-8.54-10-13.01-3.76-3.59-9.99-8.4-13.84-10.69-3.85-2.28-10.49-5.53-14.75-7.22-4.26-1.68-11.91-4.15-17-5.48-5.09-1.33-14.31-3.13-20.5-4-7.03-0.99-17.16-1.52-27-1.42-8.66 0.09-17.32 0.33-19.25 0.53zm26.5 9.01c6.05 0.26 15.27 1.11 20.5 1.88 5.23 0.76 13.55 2.48 18.5 3.82 4.95 1.34 12.6 3.96 17 5.82 4.4 1.86 10.93 5.36 14.5 7.79 3.57 2.43 8.3 6.25 10.5 8.49 2.2 2.24 5 6.08 6.23 8.54 1.22 2.45 2.52 6.49 2.87 8.96 0.49 3.35 0.16 5.65-1.28 9-1.07 2.47-3.71 6.47-5.88 8.89-2.17 2.41-6.64 6.29-9.94 8.63-3.3 2.34-9.6 6.04-14 8.24-4.4 2.19-11.38 5.2-15.5 6.67-4.12 1.48-11.77 3.74-17 5.04-5.23 1.29-13.32 2.84-18 3.45-4.68 0.6-12.66 1.09-17.75 1.09-5.09-0.01-13.75-0.69-19.25-1.51-5.5-0.82-13.6-2.62-26-6.5l-0.49-4.25c-0.26-2.34-1.52-5.82-2.79-7.75-1.27-1.93-3.87-4.53-5.77-5.78-1.9-1.25-5.02-2.56-6.95-2.9-1.93-0.34-5.53-0.06-8 0.61-2.47 0.68-5.77 2.21-10.13 5.57l-4.58-5c-2.51-2.75-5.63-7.25-6.92-10-1.61-3.42-2.35-6.81-2.36-10.75-0.01-4.25 0.71-7.22 2.74-11.4 1.74-3.58 4.99-7.7 8.87-11.25 3.36-3.08 10.11-7.69 15-10.24 4.88-2.56 12.48-5.84 16.88-7.29 4.4-1.46 12.27-3.52 17.5-4.59 5.23-1.07 14.23-2.36 20-2.86 5.77-0.5 15.45-0.69 21.5-0.42zm-73.58 77.3c3.31 0 4.55 0.57 6.58 3 1.62 1.94 2.5 4.23 2.5 6.5 0 2.52-0.82 4.34-2.92 6.5-2 2.05-3.9 3-6 3-1.7 0-3.98-0.45-5.08-1-1.1-0.55-2.68-2.35-3.5-4-0.82-1.65-1.47-4.16-1.42-5.58 0.04-1.41 1.35-3.89 2.92-5.5 2.23-2.28 3.73-2.92 6.92-2.92zm-135.89 24.72c-1.35 0.24-4.09 2.09-6.07 4.11-2.38 2.42-3.86 5.04-4.33 7.67-0.62 3.51 0.47 7.18 8.91 30 5.29 14.3 12.47 33.65 15.96 43 3.48 9.35 12.04 32.3 19.02 51 6.97 18.7 18 48.4 24.5 66 6.5 17.6 16.37 44.15 21.92 59 5.56 14.85 10.88 27.85 11.83 28.89 0.95 1.04 3.19 2.5 4.98 3.25 1.79 0.75 4.6 1.36 6.25 1.36 1.65 0 4.24-0.63 5.75-1.4 1.51-0.78 3.73-2.47 4.93-3.75 1.5-1.63 7.31-18.88 18.79-55.85 9.14-29.43 17.27-55.3 18.07-57.5 0.79-2.2 1.45-4.79 1.45-5.75 0.01-0.96 1.02-2.84 2.26-4.17 1.24-1.33 4.5-3.08 7.25-3.88 2.75-0.81 11.52-3.5 19.5-5.98 7.98-2.48 32.73-10.22 55-17.2 27.2-8.52 41.27-13.39 42.85-14.85 1.28-1.19 2.97-3.41 3.75-4.92 0.77-1.51 1.4-4.1 1.4-5.75 0-1.65-0.61-4.46-1.36-6.25-0.75-1.79-2.21-4.02-3.25-4.96-1.04-0.95-9.54-4.6-18.89-8.11-9.35-3.52-29.83-11.16-45.5-16.98-15.68-5.82-41.77-15.52-58-21.55-16.23-6.03-37.6-13.97-47.5-17.64-9.9-3.67-25.88-9.62-35.5-13.21-9.63-3.6-28.98-10.77-43-15.94-14.03-5.16-26.18-9.32-27-9.24-0.83 0.08-2.61 0.35-3.97 0.6z"/>
</svg>