<svg version="1.2" xmlns="http://www.w3.org/2000/svg" viewBox="0 0 512 512" width="512" height="512">
<path id="Color Fill 1" fill="#000" d="m307.5 83.37c-2.75 0.66-7.7 2.5-11 4.09-3.67 1.77-8.56 5.45-12.59 9.47-4.32 4.31-7.66 8.81-9.7 13.07-1.71 3.57-3.67 9.87-4.36 14-1.01 5.99-1.01 9.11-0.03 15.5 0.74 4.75 2.51 10.64 4.37 14.5 2.03 4.21 5.45 8.82 9.72 13.09q6.59 6.58 13.09 9.64c3.57 1.68 8.86 3.56 11.75 4.16 2.89 0.61 7.5 1.11 10.25 1.11 2.75 0 7.36-0.5 10.25-1.11 2.89-0.6 8.18-2.48 11.75-4.16q6.5-3.06 13.09-9.64c4.29-4.3 7.67-8.85 9.7-13.09 1.72-3.57 3.67-9.88 4.34-14 0.97-5.92 0.97-9.19 0-15.5-0.72-4.75-2.49-10.64-4.34-14.5-2.03-4.24-5.41-8.79-9.7-13.09q-6.59-6.58-13.09-9.64c-3.57-1.68-8.86-3.56-11.75-4.16-2.89-0.61-7.84-1.07-11-1.02-3.16 0.04-8 0.62-10.75 1.28zm-191.47 89.35c-1.35 0.24-4.09 2.09-6.07 4.11-2.38 2.42-3.86 5.04-4.33 7.67-0.62 3.51 0.47 7.18 8.91 30 5.29 14.3 12.47 33.65 15.96 43 3.48 9.35 12.04 32.3 19.02 51 6.97 18.7 18 48.4 24.5 66 6.5 17.6 16.37 44.15 21.92 59 5.56 14.85 10.88 27.85 11.83 28.89 0.95 1.04 3.19 2.5 4.98 3.25 1.79 0.75 4.6 1.36 6.25 1.36 1.65 0 4.24-0.63 5.75-1.4 1.51-0.78 3.73-2.47 4.93-3.75 1.5-1.63 7.31-18.88 18.79-55.85 9.14-29.43 17.27-55.3 18.07-57.5 0.79-2.2 1.45-4.79 1.45-5.75 0.01-0.96 1.02-2.84 2.26-4.17 1.24-1.33 4.5-3.08 7.25-3.88 2.75-0.81 11.52-3.5 19.5-5.98 7.98-2.48 32.73-10.22 55-17.2 27.2-8.52 41.27-13.39 42.85-14.85 1.28-1.19 2.97-3.41 3.75-4.92 0.77-1.51 1.4-4.1 1.4-5.75 0-1.65-0.61-4.46-1.36-6.25-0.75-1.79-2.21-4.02-3.25-4.96-1.04-0.95-9.54-4.6-18.89-8.11-9.35-3.52-29.82-11.16-45.5-16.98-15.68-5.82-41.77-15.52-58-21.55-16.23-6.03-37.6-13.97-47.5-17.64-9.9-3.67-25.88-9.62-35.5-13.21-9.63-3.6-28.97-10.77-43-15.94-14.03-5.16-26.18-9.32-27-9.24-0.83 0.08-2.61 0.35-3.97 0.6z"/>
</svg>