<svg version="1.2" xmlns="http://www.w3.org/2000/svg" viewBox="0 0 512 512" width="512" height="512">
<path id="Color Fill 1" fill="#000" d="m273.75 58.07c4.75-0.04 9.31 0.46 10.74 1.18 1.37 0.69 2.71 2.15 2.98 3.25 0.28 1.1 0.51 2.34 0.52 2.75 0 0.41-1 1.66-2.24 2.77-1.95 1.75-3.61 2.02-12.55 2-9.67-0.02-10.44 0.13-12.75 2.48-2.29 2.33-2.45 3.2-2.45 13 0 9.17-0.25 10.75-2 12.5-1.1 1.1-2.9 2-4 2-1.1 0-2.91-1.01-4.02-2.25-1.69-1.89-2.02-3.62-2.01-10.75 0.01-4.67 0.66-10.75 1.44-13.5 0.93-3.22 2.8-6.36 5.26-8.83 2.25-2.25 5.69-4.39 8.33-5.18 2.48-0.74 8.21-1.38 12.75-1.42zm45.5-0.04c14.42-0.03 14.81 0.03 17.25 2.47 1.38 1.37 2.52 2.84 2.53 3.25 0.02 0.41-0.88 1.99-4.03 6.25h-16c-14.67 0-16.17-0.17-18-2-1.1-1.1-1.99-2.79-1.98-3.75 0-0.96 0.36-2.2 0.78-2.76 0.42-0.56 1.65-1.56 2.73-2.22 1.3-0.8 6.99-1.22 16.72-1.24zm43.7-0.04c4.7-0.01 10.8 0.64 13.55 1.42 3.23 0.93 6.36 2.8 8.83 5.26 2.46 2.47 4.33 5.6 5.26 8.83 0.78 2.75 1.43 8.38 1.43 12.5 0 4.66-0.52 8.26-1.36 9.5-0.75 1.1-2.32 2.34-3.51 2.75-1.6 0.56-2.79 0.11-4.65-1.75-2.32-2.32-2.5-3.2-2.5-12 0-8.8-0.18-9.68-2.5-12-2.35-2.35-3.13-2.5-13-2.5-9.17 0-10.75-0.25-12.5-2-1.1-1.1-2.08-2.88-2.17-3.96-0.09-1.08 0.89-2.88 2.2-4 1.98-1.71 3.76-2.04 10.92-2.05zm23.1 52.01c1.95 0 3.46 0.77 4.46 2.25 1.18 1.77 1.51 5.65 1.51 18.25 0 12.6-0.33 16.48-1.51 18.25q-1.51 2.25-4.51 2.25-3 0-4.51-2.25c-1.17-1.76-1.53-5.77-1.59-18.28-0.08-13.41 0.17-16.39 1.55-18.25 1.06-1.42 2.71-2.22 4.6-2.22zm-133.98 1c1.06 0 2.84 1.01 3.95 2.25 1.85 2.06 2.02 3.59 1.98 34.75l-2.75 2.03c-1.51 1.12-3.09 2.02-3.5 2-0.41-0.01-1.88-1.15-3.25-2.53-2.44-2.44-2.5-2.87-2.6-17.87-0.1-14.37 0.03-15.53 2.06-18 1.19-1.44 3.04-2.63 4.11-2.63zm0.03 52c1.89 0 3.42 0.78 4.41 2.25 1.09 1.62 1.5 4.96 1.5 12-0.01 9.07 0.16 9.92 2.49 12.25 2.34 2.34 3.14 2.5 12.75 2.48 8.89-0.02 10.55 0.25 12.5 2 1.24 1.11 2.24 2.36 2.24 2.77-0.01 0.41-0.24 1.65-0.52 2.75-0.27 1.1-1.61 2.56-2.98 3.25-1.37 0.69-5.98 1.25-10.24 1.26-4.26 0.01-10-0.64-12.75-1.42-3.23-0.93-6.36-2.8-8.83-5.26-2.46-2.47-4.33-5.6-5.26-8.83-0.78-2.75-1.52-8.5-1.64-12.79-0.16-6.17 0.17-8.29 1.61-10.25q1.82-2.46 4.72-2.46zm133.95 0c1.95 0 3.46 0.77 4.46 2.25 1.03 1.54 1.51 4.79 1.51 10.25 0 4.4-0.65 10.25-1.43 13-0.93 3.23-2.8 6.36-5.26 8.83-2.47 2.46-5.6 4.33-8.83 5.26-2.75 0.78-8.38 1.44-12.5 1.45-6 0.02-8.05-0.38-10.25-2.01-1.51-1.11-2.65-2.79-2.53-3.72 0.13-0.92 1.14-2.73 2.25-4.02 1.87-2.16 2.78-2.34 11.83-2.32 9.14 0.03 9.95-0.14 12.25-2.47 2.28-2.33 2.44-3.18 2.35-12.28-0.07-7.62 0.27-10.27 1.55-12 1.06-1.42 2.71-2.22 4.6-2.22zm-266.05 9.12c0.83-0.08 12.98 4.08 27 9.24 14.03 5.17 33.38 12.34 43 15.94 9.63 3.59 25.6 9.54 35.5 13.21 9.9 3.67 31.27 11.61 47.5 17.64 16.23 6.03 42.32 15.73 58 21.55 15.68 5.82 36.15 13.46 45.5 16.98 9.35 3.51 17.85 7.16 18.89 8.11 1.04 0.94 2.5 3.17 3.25 4.96 0.75 1.79 1.36 4.6 1.36 6.25 0 1.65-0.63 4.24-1.4 5.75-0.78 1.51-2.47 3.73-3.75 4.92-1.58 1.46-15.65 6.33-42.85 14.85-22.27 6.98-47.02 14.72-55 17.2-7.98 2.48-16.75 5.17-19.5 5.98-2.75 0.8-6.01 2.55-7.25 3.88-1.24 1.33-2.25 3.21-2.26 4.17 0 0.96-0.66 3.55-1.45 5.75-0.8 2.2-8.93 28.07-18.07 57.5-11.48 36.97-17.29 54.22-18.79 55.85-1.2 1.28-3.42 2.97-4.93 3.75-1.51 0.77-4.1 1.4-5.75 1.4-1.65 0-4.46-0.61-6.25-1.36-1.79-0.75-4.03-2.21-4.98-3.25-0.95-1.04-6.27-14.04-11.83-28.89-5.55-14.85-15.42-41.4-21.92-59-6.5-17.6-17.53-47.3-24.5-66-6.98-18.7-15.54-41.65-19.02-51-3.49-9.35-10.67-28.7-15.96-43-8.44-22.82-9.53-26.49-8.91-30 0.47-2.63 1.95-5.25 4.33-7.67 1.98-2.02 4.72-3.87 6.07-4.11 1.36-0.25 3.15-0.52 3.97-0.6zm199.7 19.88c14.97 0 16.46 0.16 18.3 2 1.1 1.1 2 2.9 2 4 0 1.1-1.01 2.91-2.25 4.02-2.05 1.84-3.62 2.02-17.75 2.03-14.03 0.02-15.76-0.17-18.25-2.02-1.51-1.11-2.83-2.91-2.92-3.99-0.09-1.08 0.89-2.88 2.2-4 2.17-1.87 3.7-2.04 18.67-2.04z"/>
</svg>