<svg version="1.2" xmlns="http://www.w3.org/2000/svg" viewBox="0 0 512 512" width="512" height="512">
	<path id="Color Fill 1" fill="#fff" d="m255.5 0.12c27.28-0.04 48.78 0.34 51.25 0.9 2.34 0.54 6.37 1.99 8.96 3.23 2.59 1.24 6.91 4.27 9.6 6.75 3.16 2.9 6.11 6.99 8.28 11.5 2.71 5.63 3.94 10.43 6.27 24.5 2.01 12.18 3.65 19.02 5.39 22.5 1.37 2.75 4.24 6.54 6.37 8.43 2.13 1.88 5.9 4.33 8.38 5.44 3.17 1.42 6.57 2 11.5 1.98 6.16-0.03 8.99-0.8 23.5-6.4 16.45-6.35 16.53-6.37 27-6.41 9.74-0.04 10.97 0.18 17 3.08 3.57 1.72 8.52 5.17 11 7.67 3.11 3.14 11.53 16.73 27.2 43.88 12.48 21.63 23.49 41.13 24.46 43.33 1.29 2.93 1.77 6.68 1.8 14 0.03 8.75-0.3 10.69-2.58 15.5-1.43 3.03-3.91 7.13-5.49 9.12-1.59 1.99-8.96 8.65-16.39 14.79-7.43 6.13-14.76 13.06-16.3 15.37-1.54 2.32-3.46 6.47-4.26 9.22-0.8 2.75-1.46 6.13-1.46 7.5 0 1.38 0.66 4.75 1.46 7.5 0.8 2.75 2.72 6.9 4.26 9.22 1.54 2.31 8.87 9.24 16.3 15.37 7.43 6.14 14.8 12.8 16.39 14.79 1.58 1.99 4.06 6.1 5.49 9.12 2.27 4.79 2.61 6.79 2.61 15.5 0 8.71-0.34 10.71-2.61 15.5-1.44 3.02-12.37 22.38-24.29 43-16.55 28.62-22.91 38.74-26.88 42.75-3.06 3.08-7.69 6.38-11.21 8-5.36 2.46-7.11 2.75-16.5 2.71-10.47-0.04-10.55-0.06-27-6.41-14.51-5.6-17.34-6.37-23.5-6.4-4.93-0.02-8.33 0.56-11.5 1.98-2.48 1.11-6.25 3.56-8.38 5.44-2.13 1.89-5 5.68-6.37 8.43-1.74 3.48-3.38 10.32-5.39 22.5-2.33 14.07-3.56 18.87-6.27 24.5-2.17 4.51-5.12 8.6-8.28 11.5-2.69 2.48-7.01 5.51-9.6 6.75-2.59 1.24-6.85 2.72-9.46 3.29-3.03 0.66-22.36 0.93-101.75 0.46l-6.5-3.07c-3.57-1.69-8.25-4.62-10.39-6.5-2.14-1.89-5.14-5.23-6.67-7.43-1.53-2.2-3.51-6.02-4.4-8.5-0.88-2.48-2.89-12.15-4.45-21.5-1.95-11.68-3.62-18.57-5.34-22-1.37-2.75-4.24-6.54-6.37-8.43-2.13-1.88-5.91-4.33-8.38-5.44-3.17-1.42-6.57-2-11.5-1.98-6.16 0.03-8.99 0.8-23.5 6.4-16.45 6.35-16.53 6.37-27 6.41-9.74 0.04-10.97-0.18-17-3.08-3.58-1.72-8.53-5.17-11-7.67-3.11-3.15-11.6-16.85-27.49-44.38-12.64-21.91-23.83-42.31-24.86-45.33-1.43-4.21-1.77-7.38-1.42-13.5 0.33-5.68 1.19-9.59 2.98-13.5 1.39-3.02 3.82-7.13 5.4-9.12 1.59-1.99 8.74-8.44 15.89-14.34 7.15-5.89 13.97-11.91 15.17-13.38 1.19-1.46 3.18-4.91 4.43-7.66 1.61-3.55 2.27-6.88 2.27-11.5 0-4.62-0.66-7.95-2.27-11.5-1.25-2.75-3.24-6.2-4.43-7.66-1.2-1.47-8.02-7.49-15.17-13.38-7.15-5.9-14.3-12.35-15.89-14.34-1.58-1.99-4.06-6.09-5.49-9.12-2.28-4.81-2.61-6.75-2.58-15.5 0.03-7.32 0.51-11.07 1.8-14 0.97-2.2 11.98-21.7 24.46-43.33 15.67-27.15 24.09-40.74 27.2-43.88 2.47-2.5 7.42-5.95 11-7.67 6.03-2.9 7.26-3.12 17-3.08 10.47 0.04 10.55 0.06 27 6.41 14.4 5.55 17.39 6.37 23.5 6.44 5.61 0.06 8.09-0.45 12.5-2.57 3.03-1.45 6.96-4.26 8.75-6.23 1.79-1.97 4.21-5.5 5.38-7.84 1.29-2.58 3.24-10.92 4.96-21.25 1.56-9.35 3.57-19.02 4.45-21.5 0.89-2.47 2.87-6.3 4.4-8.5 1.53-2.2 4.42-5.46 6.42-7.25 2-1.79 5.89-4.37 8.64-5.75 2.75-1.37 6.69-2.9 8.75-3.4 2.06-0.49 24.9-0.93 50.75-0.98zm-41.91 42.63c-0.3 1.51-1.47 8.38-2.6 15.25-1.13 6.88-2.98 15.42-4.11 19-1.13 3.58-3.36 8.97-4.95 12-1.6 3.03-5.05 8.04-7.67 11.14-2.62 3.11-7.01 7.52-9.76 9.8-2.75 2.29-8.6 5.93-13 8.1-4.4 2.17-10.93 4.72-14.5 5.65-4.2 1.1-10.22 1.69-17 1.67-5.78-0.02-12.53-0.59-15-1.26-2.48-0.68-11.14-3.68-19.25-6.66-8.11-2.99-15.09-5.42-15.5-5.4-0.41 0.02-9.97 16.08-21.25 35.7-11.28 19.62-20.5 36-20.5 36.39 0 0.39 5.62 5.39 12.5 11.1 6.87 5.71 14.45 12.6 16.84 15.32 2.39 2.72 5.98 7.88 7.98 11.45 1.99 3.57 4.71 10.1 6.03 14.5 1.93 6.44 2.4 10.25 2.4 19.5 0 9.25-0.47 13.06-2.4 19.5-1.32 4.4-4.04 10.93-6.03 14.5-2 3.57-5.59 8.73-7.98 11.45-2.39 2.72-9.97 9.61-16.84 15.32-6.88 5.71-12.5 10.71-12.5 11.1 0 0.39 9.22 16.77 20.5 36.39 11.28 19.62 20.84 35.68 21.25 35.7 0.41 0.02 7.39-2.41 15.5-5.4 8.11-2.98 16.77-5.98 19.25-6.66 2.47-0.67 9.22-1.24 15-1.26 6.78-0.02 12.8 0.57 17 1.67 3.57 0.93 10.1 3.48 14.5 5.65 4.4 2.17 10.25 5.81 13 8.1 2.75 2.28 7.14 6.69 9.76 9.8 2.62 3.1 6.07 8.12 7.67 11.14 1.59 3.02 3.82 8.43 4.95 12 1.13 3.57 2.98 12.12 4.11 19 1.13 6.87 2.27 13.74 2.53 15.25l0.48 2.75c65.1 0 84-0.11 84-0.25 0-0.14 1.35-8.01 3-17.5 1.79-10.28 4.1-19.98 5.73-24 1.5-3.71 4.43-9.34 6.5-12.5 2.07-3.16 6.43-8.34 9.68-11.5 3.26-3.16 8.32-7.21 11.25-8.99 2.94-1.79 8.27-4.44 11.84-5.89 3.57-1.45 10.1-3.28 14.5-4.07 5.12-0.92 10.7-1.22 15.5-0.82 4.12 0.34 9.3 1.07 11.5 1.63 2.2 0.57 10.86 3.58 19.24 6.71 8.38 3.12 15.39 5.45 15.58 5.18 0.18-0.27 9.65-16.7 21.04-36.5 11.39-19.8 20.35-36.28 19.92-36.63-0.43-0.34-6.18-5.09-12.78-10.56-6.6-5.46-13.95-12.15-16.34-14.87-2.39-2.72-5.98-7.87-7.98-11.44-1.99-3.57-4.7-10.1-6.02-14.5-1.87-6.23-2.41-10.43-2.46-19-0.04-7.24 0.51-13.22 1.62-17.5 0.92-3.57 3.47-10.1 5.66-14.5 2.19-4.4 6.17-10.47 8.83-13.5 2.67-3.03 9.99-9.74 16.27-14.92 6.28-5.19 12-9.91 12.71-10.5 1.01-0.85-3.18-8.85-19.43-37.08-11.39-19.8-20.86-36.22-21.04-36.5-0.19-0.28-7.2 2.06-15.58 5.18-8.38 3.13-17.04 6.14-19.24 6.71-2.2 0.56-7.38 1.29-11.5 1.63-4.8 0.4-10.38 0.1-15.5-0.82-4.4-0.79-10.93-2.62-14.5-4.07-3.57-1.45-8.89-4.1-11.81-5.89-2.91-1.78-8.06-5.94-11.44-9.24-3.38-3.3-7.75-8.47-9.72-11.5-1.96-3.03-4.8-8.54-6.3-12.25-1.63-4.02-3.94-13.72-5.73-24-1.65-9.49-3-17.36-3-17.5 0-0.14-18.87-0.25-41.93-0.25h-41.94zm40.92 114.38c2.2-0.07 8.05 0.37 13 0.97 4.95 0.61 12.6 2.22 17 3.6 4.4 1.37 11.6 4.27 16 6.46 4.4 2.18 11.33 6.52 15.41 9.65 4.07 3.13 9.84 8.39 12.82 11.69 2.97 3.3 7.05 8.47 9.05 11.5 2.01 3.03 5.08 8.43 6.83 12 1.75 3.57 4.31 10.1 5.7 14.5 1.38 4.4 3.02 12.5 3.65 18 0.85 7.47 0.85 12.66 0 20.5-0.63 5.77-2.27 14.1-3.66 18.5-1.38 4.4-4.09 11.15-6.01 15-1.93 3.85-5.13 9.48-7.13 12.5-1.99 3.02-7.23 9.11-11.64 13.52-4.41 4.41-10.72 9.8-14.02 11.97-3.3 2.17-8.93 5.38-12.5 7.12-3.58 1.75-10.1 4.32-14.5 5.7-4.4 1.39-12.73 3.03-18.5 3.65-7.84 0.85-13.04 0.85-20.5 0-5.5-0.62-13.6-2.27-18-3.65-4.4-1.39-11.15-4.09-15-6.02-3.85-1.92-9.48-5.13-12.5-7.12-3.03-2-9.11-7.24-13.53-11.65-4.41-4.41-9.79-10.72-11.97-14.02-2.17-3.3-5.37-8.93-7.12-12.5-1.75-3.57-4.31-10.1-5.69-14.5-1.38-4.4-3.05-12.73-3.71-18.5-0.93-8.15-0.93-12.74 0-20.5 0.66-5.5 2.33-13.6 3.71-18 1.38-4.4 3.94-10.93 5.69-14.5 1.75-3.57 4.95-9.2 7.12-12.5 2.18-3.3 7.56-9.61 11.97-14.02 4.42-4.41 10.5-9.65 13.53-11.65 3.02-1.99 8.65-5.2 12.5-7.13 3.85-1.93 10.82-4.68 15.5-6.11 4.67-1.43 11.65-2.99 15.5-3.47 3.85-0.48 8.8-0.92 11-0.99zm-5.5 40.54c-1.93 0.25-6.43 1.3-10 2.35-3.58 1.05-9.2 3.53-12.5 5.5-3.3 1.98-8.48 6.02-11.5 8.98-3.03 2.96-7.2 8.22-9.28 11.69-2.08 3.47-4.72 9.24-5.87 12.81-1.57 4.9-2.09 9.09-2.09 17 0 7.88 0.52 12.12 2.08 17 1.15 3.57 3.7 9.2 5.68 12.5 1.97 3.3 6.01 8.48 8.98 11.5 2.96 3.02 8.22 7.2 11.69 9.27 3.47 2.08 9.46 4.74 13.31 5.92 5.25 1.61 9.49 2.13 17 2.08 7.25-0.04 11.78-0.63 16.5-2.14 3.57-1.14 9.33-3.78 12.8-5.85 3.47-2.08 8.73-6.26 11.69-9.28 2.97-3.02 7.01-8.2 8.98-11.5 1.98-3.3 4.53-8.93 5.68-12.5 1.56-4.88 2.08-9.12 2.08-17 0-7.88-0.52-12.12-2.08-17-1.15-3.57-3.7-9.2-5.68-12.5-1.97-3.3-6.01-8.47-8.98-11.5-2.96-3.03-8.22-7.2-11.69-9.28-3.47-2.07-9-4.61-12.3-5.64-3.3-1.02-9.38-2.08-13.5-2.36-4.13-0.27-9.08-0.29-11-0.05z"/>
</svg>