<svg version="1.2" xmlns="http://www.w3.org/2000/svg" viewBox="0 0 512 512" width="512" height="512">
<path id="Color Fill 1" fill="#000" d="m241 42.03c-3.57 0.41-10.32 1.23-15 1.82-4.68 0.6-13.68 2.47-20 4.15-6.32 1.68-16 4.67-21.5 6.64-5.5 1.97-15.85 6.43-23 9.91-7.15 3.48-17.8 9.62-23.66 13.64-5.87 4.02-15.51 11.59-21.43 16.81-5.92 5.22-14.17 13.33-18.34 18-4.16 4.67-9.01 10.3-10.76 12.5l-3.19 4c-16.76-11.04-23.08-14.98-24.87-15.87-1.79-0.9-4.83-1.63-6.75-1.63-1.92 0-4.74 0.62-6.25 1.39-1.51 0.76-3.42 2.63-4.25 4.15-1.28 2.36-1.5 10.36-1.5 54.02v51.26c4.65 5.76 7.58 8.28 9.5 9.31 1.92 1.03 4.96 1.88 6.75 1.87 1.79 0 7.86-1.84 13.5-4.09 5.64-2.25 21.72-8.95 35.75-14.89 14.03-5.94 29.93-12.76 35.35-15.16 5.41-2.4 10.93-5.37 12.25-6.61 1.32-1.24 2.68-3.49 3.02-5 0.34-1.51 0.29-4.32-0.1-6.25-0.46-2.26-2.19-4.86-4.87-7.33-2.28-2.1-6.74-5.37-9.9-7.25-3.16-1.88-5.75-3.87-5.75-4.42 0-0.55 5.11-6.29 11.35-12.75 6.44-6.66 15.32-14.56 20.51-18.25 5.03-3.57 12.41-8.25 16.39-10.4 3.99-2.14 11.97-5.69 17.75-7.89 5.78-2.19 12.75-4.61 15.5-5.37 2.75-0.76 8.37-2.08 12.5-2.93 4.12-0.85 14.47-1.81 23-2.13 12.05-0.45 18.17-0.19 27.5 1.19 6.93 1.02 17.07 3.44 24 5.72 6.6 2.18 16.5 6.22 22 8.99 5.5 2.76 13.6 7.45 18 10.42 4.4 2.96 9.57 6.78 11.5 8.48 1.93 1.7 5.75 5.24 8.5 7.87 2.75 2.64 6.35 6.32 8 8.19 1.65 1.86 4.58 5.41 6.52 7.88 1.94 2.46 4.7 6.28 6.14 8.48 1.43 2.2 4.17 6.47 6.07 9.5 1.91 3.03 5.61 10.9 8.23 17.5 2.62 6.6 6.05 17.18 7.63 23.5 1.57 6.32 3.36 17.12 3.98 24 0.85 9.54 0.83 15.34-0.11 24.5-0.68 6.6-2.46 16.95-3.96 23-1.49 6.05-4.44 15.05-6.54 20-2.1 4.95-5.6 12.37-7.76 16.5-2.17 4.12-5.89 10.43-8.27 14-2.38 3.57-6.7 9.2-9.6 12.5-2.9 3.3-8.21 8.86-11.8 12.35-3.59 3.49-10.8 9.4-16.03 13.13-5.23 3.73-12.2 8.14-15.5 9.79-3.3 1.66-10.27 4.6-15.5 6.55-5.23 1.94-13.1 4.67-17.5 6.07-4.4 1.39-11.15 3.11-15 3.82-4.27 0.79-14.61 1.27-26.5 1.23-14.65-0.04-21.49-0.48-27.5-1.79-4.4-0.96-10.7-2.44-14-3.29-3.3-0.85-8.7-2.66-12-4.02-3.3-1.36-8.03-3.39-10.5-4.53-2.47-1.13-8.1-4.09-12.5-6.59-4.4-2.49-12.05-7.78-17-11.75-4.95-3.97-11.97-10.32-15.61-14.1-3.64-3.78-8.36-8.83-10.5-11.22-2.3-2.57-6.75-5.77-10.89-7.84-6.53-3.27-7.5-3.47-14.5-3.06-4.93 0.28-8.87 1.14-11.5 2.51-2.2 1.14-5.87 4.02-8.17 6.41-2.29 2.38-5.07 6.13-6.18 8.33-1.1 2.2-2.31 6.48-2.67 9.5-0.51 4.28-0.18 6.94 1.51 12 1.2 3.57 4.02 8.98 6.28 12 2.25 3.02 9.3 10.71 15.66 17.07 6.37 6.37 16.07 14.95 21.57 19.08 5.5 4.12 13.37 9.54 17.5 12.04 4.12 2.49 10.87 6.23 15 8.31 4.12 2.07 12.45 5.68 18.5 8.02 6.05 2.34 14.15 5.23 18 6.43 3.85 1.19 12.18 3.24 18.5 4.54 6.32 1.3 19.15 2.9 28.5 3.56 13.19 0.92 19.8 0.92 29.5-0.01 6.87-0.65 17-2.08 22.5-3.17 5.5-1.09 12.7-2.67 16-3.51 3.3-0.85 10.73-3.12 16.5-5.05 5.77-1.93 15.23-5.74 21-8.47 5.77-2.74 13.87-7.05 18-9.6 4.12-2.55 10.43-6.68 14-9.18 3.57-2.51 7.6-5.45 8.95-6.56 1.35-1.1 4.72-4.02 7.5-6.48 2.78-2.46 7.99-7.41 11.57-11 3.59-3.59 9.28-9.67 12.64-13.52 3.36-3.85 9.6-12.18 13.85-18.5 4.26-6.32 10.37-16.9 13.58-23.5 3.21-6.6 7.45-16.5 9.42-22 1.98-5.5 4.48-13.38 5.57-17.5 1.08-4.13 2.83-11.55 3.87-16.5 1.05-4.95 2.43-15.75 3.07-24 0.85-11.09 0.87-18.85 0.07-29.75-0.6-8.11-1.8-18.24-2.67-22.5-0.87-4.26-2.74-12.7-4.17-18.75-1.42-6.05-4.8-16.4-7.5-23-2.71-6.6-7.12-16.28-9.8-21.5-2.69-5.22-7.89-14-11.57-19.5-3.68-5.5-9.86-13.83-13.74-18.5-3.87-4.67-10.66-12.02-15.09-16.33-4.43-4.31-12.32-11.06-17.55-15.02-5.23-3.96-11.3-8.35-13.5-9.76-2.2-1.42-7.38-4.63-11.5-7.13-4.13-2.51-11.1-6.23-15.5-8.27-4.4-2.05-12.95-5.48-19-7.65-6.05-2.16-14.82-4.82-19.5-5.9-4.68-1.09-9.4-2.2-10.5-2.47-1.1-0.27-8.52-1.39-16.5-2.49-8.37-1.15-19.15-1.93-25.5-1.85-6.05 0.09-13.93 0.49-17.5 0.9z"/>
</svg>