<svg version="1.2" xmlns="http://www.w3.org/2000/svg" viewBox="0 0 512 512" width="512" height="512"><path id="Color Fill 1" fill="#000" d="m215.5 38.67c5.5 0.24 13.6 0.85 18 1.36 4.4 0.51 12.5 2.08 18 3.48 5.5 1.4 13.6 3.83 18 5.4 4.4 1.56 11.71 4.7 16.25 6.97 4.54 2.26 11.29 5.98 15 8.25 3.71 2.27 10.57 7.09 15.25 10.7 4.68 3.62 12.28 10.42 16.9 15.12 4.63 4.7 10.97 11.92 14.11 16.05 3.13 4.12 7.42 10.2 9.53 13.5 2.1 3.3 5.83 10.05 8.28 15 2.45 4.95 5.79 12.6 7.42 17 1.64 4.4 3.84 11.15 4.9 15 1.05 3.85 2.58 11.05 3.4 16 0.82 4.95 1.77 14.4 2.11 21 0.37 7.09 0.14 16.3-0.55 22.5-0.65 5.78-2.04 14.78-3.1 20-1.06 5.22-2.79 12.2-3.86 15.5-1.06 3.3-3.33 9.49-5.03 13.75-1.71 4.26-4.83 11.01-6.93 15-2.1 3.99-5.92 10.4-8.49 14.25-2.57 3.85-5.91 8.71-10.19 14.62l63.65 63.69c35.01 35.03 63.88 64.59 64.16 65.69 0.28 1.1 0.77 3.13 1.09 4.5 0.32 1.38-0.09 4.75-0.91 7.5-0.83 2.75-2.73 6.26-4.24 7.8-1.51 1.54-5 3.47-7.75 4.28-2.75 0.82-5.68 1.28-6.5 1.03-0.82-0.24-2.85-0.73-4.5-1.09-2.25-0.48-18.83-16.47-130.38-128.02l-3.81 2.76c-2.1 1.52-6.96 4.86-10.81 7.43-3.85 2.57-9.93 6.21-13.5 8.09-3.57 1.88-10.32 5.01-15 6.94-4.68 1.94-11.2 4.39-14.5 5.44-3.3 1.06-10.28 2.78-15.5 3.84-5.22 1.06-14.22 2.45-20 3.1-6.2 0.69-15.41 0.92-22.5 0.55-6.6-0.34-16.05-1.29-21-2.11-4.95-0.82-12.15-2.35-16-3.4-3.85-1.06-10.82-3.34-15.5-5.08-4.68-1.74-12.32-5.09-17-7.44-4.68-2.35-11.65-6.25-15.5-8.67-3.85-2.42-10.37-7.1-14.5-10.4-4.12-3.3-11.1-9.61-15.51-14.02-4.4-4.42-10.75-11.63-14.1-16.03-3.36-4.4-7.97-11.04-10.25-14.75-2.28-3.71-6-10.46-8.26-15-2.27-4.54-5.4-11.85-6.97-16.25-1.56-4.4-3.96-12.27-5.33-17.5-1.36-5.22-3.01-13.55-3.65-18.5-0.65-4.95-1.18-15.3-1.19-23-0.01-7.7 0.54-17.82 1.2-22.5 0.67-4.67 2.13-12.32 3.25-17 1.11-4.67 3.38-12.32 5.03-17 1.65-4.67 4.67-12.1 6.72-16.5 2.04-4.4 5.36-10.59 7.38-13.75 2.03-3.16 3.68-5.97 3.68-6.25 0-0.27 2.73-4.21 6.06-8.75 3.34-4.54 10.43-12.69 15.75-18.13 5.33-5.43 14.08-13.19 19.44-17.25 5.36-4.05 9.97-7.37 10.25-7.37 0.28 0 3.09-1.65 6.25-3.68 3.16-2.02 9.35-5.34 13.75-7.38 4.4-2.05 11.82-5.07 16.5-6.72 4.68-1.65 12.32-3.92 17-5.04 4.68-1.12 12.32-2.51 17-3.1 4.68-0.59 10.53-1.24 13-1.46 2.47-0.21 9-0.19 14.5 0.05zm-24.5 37.45c-2.47 0.51-7.65 1.64-11.5 2.52-3.85 0.89-9.7 2.48-13 3.53-3.3 1.06-9.37 3.51-13.5 5.44-4.12 1.93-9.07 4.53-11 5.78-1.93 1.25-6.17 4.04-9.43 6.19-3.25 2.16-9.96 7.75-14.89 12.42-4.93 4.68-11.51 11.88-14.62 16-3.1 4.13-7.06 9.75-8.79 12.5-1.72 2.75-4.67 8.38-6.55 12.5-1.88 4.13-4.12 9.53-4.98 12-0.86 2.48-2.47 7.88-3.58 12-1.1 4.13-2.49 10.43-3.07 14-0.59 3.57-1.07 12.35-1.06 19.5 0 7.15 0.65 16.82 1.45 21.5 0.79 4.68 1.93 10.3 2.54 12.5 0.6 2.2 2.24 7.38 3.65 11.5 1.4 4.13 4.76 11.77 7.46 17 2.7 5.23 7.94 13.54 11.64 18.49 3.7 4.94 10.33 12.52 14.73 16.84 4.4 4.32 9.8 9.14 12 10.7 2.2 1.57 8.05 5.27 13 8.22 4.95 2.94 10.35 5.95 12 6.68 1.65 0.74 5.7 2.41 9 3.72 3.3 1.32 9.38 3.25 13.5 4.3 4.13 1.05 10.43 2.43 14 3.08 3.57 0.64 12.8 1.15 20.5 1.14 8.4-0.02 17.8-0.69 23.5-1.69 5.22-0.91 13.32-2.91 18-4.44 4.68-1.54 12.1-4.46 16.5-6.49 4.4-2.03 12.5-6.68 18-10.33 6.16-4.09 13.84-10.5 20-16.68 5.5-5.52 12.32-13.41 15.16-17.54 2.84-4.12 7.26-11.55 9.83-16.5 2.57-4.95 6.18-13.5 8.02-19 1.84-5.5 4.09-14.27 5-19.5 1.01-5.81 1.65-14.93 1.65-23.5-0.01-8.3-0.64-17.46-1.56-22.5-0.86-4.67-2.17-10.75-2.92-13.5-0.75-2.75-2.28-7.47-3.41-10.5-1.13-3.02-3.36-8.2-4.96-11.5-1.6-3.3-4.82-9.15-7.16-13-2.33-3.85-5.36-8.57-6.72-10.5-1.36-1.92-6.2-7.32-10.75-12-4.54-4.67-12.3-11.53-17.22-15.23-4.93-3.7-13.23-8.95-18.46-11.67-5.23-2.71-13.55-6.28-18.5-7.94-4.95-1.66-13.84-3.94-19.75-5.09-8.04-1.55-14.34-2.04-25-1.96-7.84 0.06-16.28 0.51-18.75 1.01z"/>
</svg>